<?xml version="1.0" encoding="UTF-8"?>
<svg id="Layer_1" data-name="Layer 1" xmlns="http://www.w3.org/2000/svg" xmlns:xlink="http://www.w3.org/1999/xlink" viewBox="0 0 1920 720">
  <defs>
    <style>
      .cls-1 {
        fill: #d2e7f0;
      }

      .cls-2 {
        fill: #9d8866;
      }

      .cls-3 {
        opacity: .7;
      }

      .cls-3, .cls-4 {
        fill: rgba(163, 185, 191, .6);
      }

      .cls-5 {
        fill: url(#linear-gradient);
      }

      .cls-6, .cls-7 {
        fill: #fff;
      }

      .cls-6, .cls-8, .cls-9 {
        opacity: .4;
      }

      .cls-10 {
        fill: #e0e0b9;
      }

      .cls-11 {
        fill: #daf6ff;
      }

      .cls-12 {
        opacity: .2;
      }

      .cls-13 {
        fill: #ffaf8b;
      }

      .cls-14 {
        fill: #ffe1da;
      }

      .cls-7, .cls-15, .cls-16, .cls-4 {
        opacity: .5;
      }

      .cls-15 {
        fill: url(#radial-gradient-2);
      }

      .cls-17 {
        fill: #fdffd3;
      }

      .cls-18 {
        fill: #ffdec4;
      }

      .cls-8, .cls-19 {
        fill: #bf958b;
      }

      .cls-20 {
        fill: #6f915c;
      }

      .cls-21 {
        fill: #f6ffff;
      }

      .cls-22 {
        fill: #c8d5d9;
      }

      .cls-23 {
        fill: #ffc79d;
      }

      .cls-24 {
        fill: #e7beff;
      }

      .cls-25 {
        fill: #78b6d1;
      }

      .cls-26 {
        fill: #e2eeff;
      }

      .cls-27 {
        fill: url(#radial-gradient);
      }

      .cls-28 {
        fill: #8ca77d;
      }

      .cls-29 {
        fill: #ecf8ff;
      }

      .cls-30 {
        fill: #fcffb5;
      }

      .cls-31 {
        fill: #c2c273;
      }

      .cls-32 {
        fill: #b9ffe2;
      }

      .cls-33 {
        fill: #fff0ec;
      }

      .cls-34 {
        fill: #ffed73;
      }

      .cls-35 {
        fill: #93c5da;
      }

      .cls-36 {
        fill: #e6f0ef;
      }

      .cls-37 {
        fill: #d793ff;
      }

      .cls-38 {
        fill: #e4f1f6;
      }

      .cls-16, .cls-9 {
        fill: #f2f2f2;
      }

      .cls-19 {
        opacity: .6;
      }
    </style>
    <radialGradient id="radial-gradient" cx="1755.83" cy="-627.91" fx="2558.07" fy="-1247.53" r="2575.18" gradientTransform="matrix(1, 0, 0, 1, 0, 0)" gradientUnits="userSpaceOnUse">
      <stop offset="0" stop-color="#fff4e9"/>
      <stop offset=".3" stop-color="#fcf3e9"/>
      <stop offset=".45" stop-color="#f5f3eb"/>
      <stop offset=".57" stop-color="#e7f2ed"/>
      <stop offset=".67" stop-color="#d5f0f1"/>
      <stop offset=".75" stop-color="#bdeef6"/>
      <stop offset=".83" stop-color="#9febfc"/>
      <stop offset=".86" stop-color="#94ebff"/>
    </radialGradient>
    <linearGradient id="linear-gradient" x1=".5" y1="378.06" x2="2108.67" y2="378.06" gradientTransform="matrix(1, 0, 0, 1, 0, 0)" gradientUnits="userSpaceOnUse">
      <stop offset="0" stop-color="#cbd2e2"/>
      <stop offset=".51" stop-color="#d7dfe4"/>
      <stop offset=".99" stop-color="#dde5e5"/>
    </linearGradient>
    <radialGradient id="radial-gradient-2" cx="1796.83" cy="215.34" fx="2871.93" fy="-615.01" r="3451.03" xlink:href="#radial-gradient"/>
  </defs>
  <rect class="cls-27" x="-78.17" y="-774.9" width="2037" height="1194"/>
  <rect class="cls-7" x="-78.17" y="-786.9" width="2037" height="1194"/>
  <ellipse class="cls-10" cx="955.33" cy="-11.4" rx="145.5" ry="117.5"/>
  <ellipse class="cls-10" cx="1213.33" cy="-8.9" rx="181.5" ry="161"/>
  <ellipse class="cls-10" cx="1679.33" cy="-159.4" rx="142.5" ry="160.5"/>
  <ellipse class="cls-10" cx="1855.33" cy="-103.4" rx="104.5" ry="161.5"/>
  <ellipse class="cls-10" cx="1381.33" cy="-64.4" rx="135.5" ry="122.5"/>
  <ellipse class="cls-10" cx="237.33" cy="-18.9" rx="92.5" ry="37"/>
  <ellipse class="cls-10" cx="-4.86" cy="-116.4" rx="84.31" ry="159.5"/>
  <ellipse class="cls-10" cx="24.83" cy="-51.9" rx="179" ry="118"/>
  <polygon class="cls-10" points="1834.47 33.35 1742.84 43.55 1688.2 -30.7 1725.18 -115.15 1816.81 -125.35 1871.45 -51.1 1834.47 33.35"/>
  <g>
    <path class="cls-31" d="M1549.31-151.97c0-81.54,53.98-148.87,123.89-159.14l2.91-6.93c-1.22-.03-2.44-.05-3.67-.05-78.7,0-142.5,71.86-142.5,160.5,0,78.68,50.27,144.13,116.6,157.85-56.51-21.31-97.24-81.41-97.24-152.23Z"/>
    <path class="cls-31" d="M1892.41-191.89c22.36,29.62,36.54,73.59,36.54,122.67,0,39.67-9.26,76-24.62,104.11,29.22-28.63,48.62-79.06,48.62-136.49,0-44.95-11.89-85.6-31.06-114.88h-19.14l-10.34,24.58Z"/>
  </g>
  <rect class="cls-33" x="1215.83" y="-55.9" width="113" height="114"/>
  <rect class="cls-33" x="945.83" y="-70.9" width="113" height="114"/>
  <rect class="cls-33" x="203.83" y="-55.9" width="113" height="114"/>
  <rect class="cls-14" x="329.83" y="-286.9" width="183" height="305"/>
  <rect class="cls-14" x="1341.83" y="-108.9" width="183" height="127"/>
  <path class="cls-14" d="M980.83,1.1h-145V-242.9c46,1.33,92,2.67,138,4,2.33,80,4.67,160,7,240Z"/>
  <rect class="cls-14" x="1767.83" y="-169.9" width="183" height="183"/>
  <rect class="cls-19" x="1342.28" y="-108.8" width="13.52" height="157.82"/>
  <rect class="cls-19" x="329.91" y="-285.82" width="24.91" height="286.92"/>
  <rect class="cls-8" x="137.06" y="-134.82" width="13.52" height="157.82"/>
  <rect class="cls-5" x=".5" y="-15.06" width="2108.16" height="786.24"/>
  <polygon class="cls-28" points="-26.5 144.09 -31.5 81.21 512.83 63.1 400.43 -12.83 -35.67 -11.25 -26.5 144.09"/>
  <polygon class="cls-28" points="1959.83 36.85 1956.79 -12.08 1726.83 -3.9 1500.83 -4.9 1370.95 -14.09 1417.83 4.1 1542.22 15.3 1646.78 11.24 1931.34 7.4 1959.83 36.85"/>
  <polygon class="cls-12" points="1437.83 -2.32 1409.16 -2.32 1406.85 -10.74 1416.4 -17.15 1426.86 -14.9 1442.83 -9.9 1450.18 .1 1442.83 .1 1437.83 -2.32"/>
  <path class="cls-12" d="M1471.83,.1l-14.24-2.42-14.76-7.58,3.28-6,22.13-1.25,14.59,11.25c-2,6-11,6-11,6Z"/>
  <path class="cls-28" d="M1442.83,.1V-9.9l-6.22,5-4.11-5.84,3.33-7.16-5-7,7-13.47,.5-23.27s7.5-7.25,16.5-11.25,20,9,20,9l-15.1,22,11.06,3.53-.5,14.18-14.08,9.79-8.55,4.5,2.51,10h-7.35Z"/>
  <path class="cls-28" d="M1471.83,.1l-7.82-10-4.52-13,6.17-13.88,10.17-12.12,15.58,1.17s11.2,3.31,11.31,12.07-3.89,23.76-3.89,23.76l-16,6-1.73,6h-9.27Z"/>
  <polygon class="cls-20" points="1442.83 .1 1446.1 .1 1444.46 -9.92 1442.83 -9.9 1442.83 .1"/>
  <polygon class="cls-20" points="1475.83 -48.9 1465.65 -36.78 1459.48 -22.9 1464 -9.9 1471.83 .1 1481.1 .1 1472.66 -4.91 1466.61 -21.64 1471.83 -36.78 1479.83 -30.9 1478.42 -38.37 1471.83 -40.89 1475.83 -44.9 1483.83 -46.9 1475.83 -48.9"/>
  <polygon class="cls-30" points="374.19 7.49 398.03 1.1 429.52 26.19 391.09 34.9 374.19 7.49"/>
  <polygon class="cls-1" points="316.83 58.1 368.6 58.1 337.07 18.1 312.53 18 316.83 58.1"/>
  <polygon class="cls-37" points="237.33 18.1 297.29 18.1 305.37 43.1 231.21 43.1 237.33 18.1"/>
  <polygon class="cls-25" points="208.55 23 195.92 65.63 144.83 65.63 165.72 20.89 208.55 23"/>
  <path class="cls-35" d="M199.76,30.6l-10.16,27.5c.22,0-33.79,0-33.79,0l21.99-5.16,10.98-3.95,10.98-18.39Z"/>
  <path class="cls-24" d="M297.83,19.1l4,24c.22,0-42.24,0-42.24,0l21.99-5.16,10.98-3.95,5.27-14.89Z"/>
  <path class="cls-38" d="M337.83,24.1l9,20c.22,0-24.22,12-24.22,12l21.99-5.16,10.98-3.95-17.75-22.89Z"/>
  <path class="cls-17" d="M397.83,1.1l17.49,20.76c.22,0-24.22,12-24.22,12l21.99-5.16,10.98-3.95L397.83,1.1Z"/>
  <g>
    <g>
      <g>
        <path class="cls-12" d="M1750.21,72.1l-66.46-6.94,7.16-8.36,4.24,.11,2.78-2.71-6.42-.17,2.65-4.76,5.9,.16c.9-1.81-2.33-4.02-2.33-4.02l-1.59-2.67,5.12-2.43,4.12,1.96,4.69-3.33-5.15-1.68-1.3-3.69,3.22-2.28,7.1,1.86,.58-4.36,4.43-3.95,6.11-6.01,56.38,9.23-1.47,8.6-9.5,10.5-9.73,10.49-10.52,14.46Z"/>
        <g>
          <polygon class="cls-23" points="1780.2 37.67 1723.21 31.61 1729.28 27.15 1785.3 32.1 1780.2 37.67"/>
          <polygon class="cls-18" points="1722.95 33.54 1723.21 31.61 1780.2 37.67 1785.3 32.1 1785.05 34.03 1779.75 40.14 1722.95 33.54"/>
        </g>
        <g>
          <polygon class="cls-23" points="1771.6 44.9 1714.6 38.84 1720.67 34.38 1776.7 39.33 1771.6 44.9"/>
          <polygon class="cls-18" points="1714.35 40.77 1714.6 38.84 1771.6 44.9 1776.7 39.33 1776.44 41.26 1771.15 47.38 1714.35 40.77"/>
        </g>
        <g>
          <polygon class="cls-23" points="1762.15 53.58 1705.16 47.52 1711.23 43.06 1767.26 48 1762.15 53.58"/>
          <polygon class="cls-18" points="1704.9 49.44 1705.16 47.52 1762.15 53.58 1767.26 48 1767 49.94 1761.71 56.05 1704.9 49.44"/>
        </g>
        <g>
          <polygon class="cls-23" points="1785.78 14.41 1731.71 11.06 1732.94 5.55 1786.54 7.63 1785.78 14.41"/>
          <polygon class="cls-18" points="1733.76 12.28 1731.71 11.06 1785.78 14.41 1786.54 7.63 1787.73 8.57 1787.29 15.32 1733.76 12.28"/>
        </g>
        <g>
          <polygon class="cls-23" points="1785.31 21.77 1731.24 18.42 1732.47 12.91 1786.06 14.98 1785.31 21.77"/>
          <polygon class="cls-18" points="1733.28 19.63 1731.24 18.42 1785.31 21.77 1786.06 14.98 1787.25 15.93 1786.82 22.67 1733.28 19.63"/>
        </g>
        <g>
          <polygon class="cls-23" points="1784.81 29.48 1730.74 26.13 1731.97 20.62 1785.57 22.69 1784.81 29.48"/>
          <polygon class="cls-18" points="1732.79 27.34 1730.74 26.13 1784.81 29.48 1785.57 22.69 1786.76 23.64 1786.32 30.38 1732.79 27.34"/>
        </g>
        <g>
          <polygon class="cls-23" points="1744.54 69.46 1687.54 63.4 1693.61 58.94 1749.64 63.89 1744.54 69.46"/>
          <polygon class="cls-18" points="1687.29 65.33 1687.54 63.4 1744.54 69.46 1749.64 63.89 1749.39 65.82 1744.09 71.94 1687.29 65.33"/>
        </g>
      </g>
      <g>
        <polygon class="cls-23" points="1751.77 61.66 1694.77 55.6 1700.84 51.14 1756.87 56.09 1751.77 61.66"/>
        <polygon class="cls-18" points="1694.52 57.53 1694.77 55.6 1751.77 61.66 1756.87 56.09 1756.62 58.02 1751.32 64.14 1694.52 57.53"/>
      </g>
    </g>
    <polygon class="cls-2" points="1371.82 28.37 1369.97 28.29 1369.23 41.76 1371.09 41.83 1371.82 28.37"/>
    <g>
      <g>
        <path class="cls-12" d="M1361.34,42.73l-25.52-3.51,2.75-4.22,1.63,.06,1.07-1.37-2.47-.09,1.02-2.41,2.26,.08c.34-.91-.89-2.03-.89-2.03l-.61-1.35,1.97-1.23,1.58,.99,1.8-1.68-1.98-.85-.5-1.87,1.23-1.15,2.72,.94,.22-2.2,1.7-2,2.35-3.04,21.65,4.66-.57,4.35-3.65,5.31-3.74,5.3-4.04,7.31Z"/>
        <g>
          <polygon class="cls-23" points="1372.85 25.33 1350.97 22.27 1353.3 20.02 1374.81 22.52 1372.85 25.33"/>
          <polygon class="cls-18" points="1350.87 23.25 1350.97 22.27 1372.85 25.33 1374.81 22.52 1374.72 23.49 1372.68 26.59 1350.87 23.25"/>
        </g>
        <g>
          <polygon class="cls-23" points="1369.55 28.99 1347.67 25.93 1350 23.67 1371.51 26.17 1369.55 28.99"/>
          <polygon class="cls-18" points="1347.57 26.9 1347.67 25.93 1369.55 28.99 1371.51 26.17 1371.41 27.15 1369.38 30.24 1347.57 26.9"/>
        </g>
        <g>
          <polygon class="cls-23" points="1365.93 33.37 1344.04 30.31 1346.37 28.06 1367.88 30.56 1365.93 33.37"/>
          <polygon class="cls-18" points="1343.95 31.29 1344.04 30.31 1365.93 33.37 1367.88 30.56 1367.79 31.53 1365.75 34.62 1343.95 31.29"/>
        </g>
        <g>
          <polygon class="cls-23" points="1375 13.58 1354.24 11.89 1354.71 9.11 1375.29 10.15 1375 13.58"/>
          <polygon class="cls-18" points="1355.02 12.51 1354.24 11.89 1375 13.58 1375.29 10.15 1375.74 10.63 1375.58 14.04 1355.02 12.51"/>
        </g>
        <g>
          <polygon class="cls-23" points="1374.82 17.3 1354.06 15.61 1354.53 12.82 1375.11 13.87 1374.82 17.3"/>
          <polygon class="cls-18" points="1354.84 16.22 1354.06 15.61 1374.82 17.3 1375.11 13.87 1375.56 14.35 1375.39 17.76 1354.84 16.22"/>
        </g>
        <g>
          <polygon class="cls-23" points="1374.62 21.2 1353.87 19.5 1354.34 16.72 1374.91 17.77 1374.62 21.2"/>
          <polygon class="cls-18" points="1354.65 20.12 1353.87 19.5 1374.62 21.2 1374.91 17.77 1375.37 18.24 1375.2 21.65 1354.65 20.12"/>
        </g>
        <g>
          <polygon class="cls-23" points="1359.16 41.4 1337.28 38.34 1339.61 36.08 1361.12 38.58 1359.16 41.4"/>
          <polygon class="cls-18" points="1337.18 39.31 1337.28 38.34 1359.16 41.4 1361.12 38.58 1361.02 39.56 1358.99 42.65 1337.18 39.31"/>
        </g>
      </g>
      <g>
        <polygon class="cls-23" points="1361.94 37.46 1340.06 34.4 1342.39 32.14 1363.9 34.64 1361.94 37.46"/>
        <polygon class="cls-18" points="1339.96 35.37 1340.06 34.4 1361.94 37.46 1363.9 34.64 1363.8 35.62 1361.77 38.71 1339.96 35.37"/>
      </g>
    </g>
    <g>
      <polygon class="cls-13" points="1378.04 3.84 1344.87 20.33 1364.38 29.83 1378.04 3.84"/>
      <polygon class="cls-32" points="1386.23 30 1364.38 29.83 1378.04 3.84 1386.23 30"/>
      <polygon class="cls-34" points="1393.95 21.56 1386.23 30 1378.04 3.84 1393.95 21.56"/>
    </g>
    <polygon class="cls-2" points="1609.36 32.99 1607.5 32.91 1606.77 46.38 1608.62 46.45 1609.36 32.99"/>
    <g>
      <g>
        <path class="cls-12" d="M1581.24,55.45l-36.09-6.35,4.32-6.03,2.32,.16,1.65-1.95-3.51-.25,1.68-3.46,3.23,.23c.58-1.32-1.08-3.01-1.08-3.01l-.74-2,2.92-1.7,2.16,1.53,2.73-2.37-2.74-1.33-.54-2.75,1.87-1.63,3.8,1.51,.53-3.21,2.62-2.84,3.63-4.32,30.46,7.85-1.22,6.32-5.71,7.57-5.83,7.56-6.45,10.47Z"/>
        <g>
          <polygon class="cls-23" points="1599.31 30.59 1568.36 25.07 1571.9 21.89 1602.37 26.58 1599.31 30.59"/>
          <polygon class="cls-18" points="1568.13 26.49 1568.36 25.07 1599.31 30.59 1602.37 26.58 1602.14 28 1598.95 32.41 1568.13 26.49"/>
        </g>
        <g>
          <polygon class="cls-23" points="1594.25 35.77 1563.3 30.25 1566.84 27.07 1597.32 31.76 1594.25 35.77"/>
          <polygon class="cls-18" points="1563.07 31.67 1563.3 30.25 1594.25 35.77 1597.32 31.76 1597.08 33.18 1593.89 37.59 1563.07 31.67"/>
        </g>
        <g>
          <polygon class="cls-23" points="1588.66 42 1557.72 36.48 1561.25 33.3 1591.73 37.98 1588.66 42"/>
          <polygon class="cls-18" points="1557.48 37.89 1557.72 36.48 1588.66 42 1591.73 37.98 1591.49 39.4 1588.3 43.82 1557.48 37.89"/>
        </g>
        <g>
          <polygon class="cls-23" points="1603.48 13.54 1574 10.07 1574.94 6.03 1604.21 8.54 1603.48 13.54"/>
          <polygon class="cls-18" points="1575.07 11 1574 10.07 1603.48 13.54 1604.21 8.54 1604.82 9.26 1604.26 14.23 1575.07 11"/>
        </g>
        <g>
          <polygon class="cls-23" points="1602.87 18.96 1573.39 15.49 1574.33 11.44 1603.6 13.96 1602.87 18.96"/>
          <polygon class="cls-18" points="1574.46 16.42 1573.39 15.49 1602.87 18.96 1603.6 13.96 1604.21 14.68 1603.65 19.65 1574.46 16.42"/>
        </g>
        <g>
          <polygon class="cls-23" points="1602.23 24.64 1572.75 21.17 1573.69 17.12 1602.97 19.64 1602.23 24.64"/>
          <polygon class="cls-18" points="1573.82 22.1 1572.75 21.17 1602.23 24.64 1602.97 19.64 1603.57 20.36 1603.01 25.33 1573.82 22.1"/>
        </g>
        <g>
          <polygon class="cls-23" points="1578.25 53.39 1547.31 47.87 1550.84 44.69 1581.32 49.38 1578.25 53.39"/>
          <polygon class="cls-18" points="1547.07 49.29 1547.31 47.87 1578.25 53.39 1581.32 49.38 1581.08 50.8 1577.89 55.21 1547.07 49.29"/>
        </g>
      </g>
      <g>
        <polygon class="cls-23" points="1582.59 47.77 1551.64 42.25 1555.18 39.07 1585.65 43.76 1582.59 47.77"/>
        <polygon class="cls-18" points="1551.41 43.67 1551.64 42.25 1582.59 47.77 1585.65 43.76 1585.42 45.18 1582.22 49.59 1551.41 43.67"/>
      </g>
    </g>
    <g>
      <g>
        <path class="cls-12" d="M1664,61.76l-44.99-5.85,4.85-7.05,2.87,.1,1.88-2.28-4.35-.15,1.79-4.02,3.99,.13c.61-1.52-1.57-3.39-1.57-3.39l-1.07-2.25,3.47-2.05,2.79,1.66,3.18-2.81-3.49-1.42-.88-3.11,2.18-1.93,4.8,1.57,.39-3.68,3-3.34,4.14-5.07,38.17,7.78-1,7.25-6.43,8.86-6.59,8.85-7.12,12.19Z"/>
        <g>
          <polygon class="cls-23" points="1684.3 32.72 1645.72 27.61 1649.83 23.85 1687.76 28.02 1684.3 32.72"/>
          <polygon class="cls-18" points="1645.54 29.23 1645.72 27.61 1684.3 32.72 1687.76 28.02 1687.58 29.65 1684 34.81 1645.54 29.23"/>
        </g>
        <g>
          <polygon class="cls-23" points="1678.48 38.82 1639.89 33.71 1644 29.95 1681.93 34.12 1678.48 38.82"/>
          <polygon class="cls-18" points="1639.72 35.33 1639.89 33.71 1678.48 38.82 1681.93 34.12 1681.76 35.75 1678.17 40.91 1639.72 35.33"/>
        </g>
        <g>
          <polygon class="cls-23" points="1672.09 46.14 1633.5 41.03 1637.61 37.26 1675.54 41.44 1672.09 46.14"/>
          <polygon class="cls-18" points="1633.33 42.65 1633.5 41.03 1672.09 46.14 1675.54 41.44 1675.37 43.06 1671.78 48.22 1633.33 42.65"/>
        </g>
        <g>
          <polygon class="cls-23" points="1688.08 13.11 1651.48 10.28 1652.31 5.63 1688.59 7.38 1688.08 13.11"/>
          <polygon class="cls-18" points="1652.86 11.31 1651.48 10.28 1688.08 13.11 1688.59 7.38 1689.4 8.18 1689.1 13.87 1652.86 11.31"/>
        </g>
        <g>
          <polygon class="cls-23" points="1687.76 19.31 1651.16 16.48 1651.99 11.84 1688.27 13.59 1687.76 19.31"/>
          <polygon class="cls-18" points="1652.54 17.51 1651.16 16.48 1687.76 19.31 1688.27 13.59 1689.08 14.38 1688.78 20.07 1652.54 17.51"/>
        </g>
        <g>
          <polygon class="cls-23" points="1687.43 25.81 1650.82 22.99 1651.65 18.34 1687.94 20.09 1687.43 25.81"/>
          <polygon class="cls-18" points="1652.2 24.01 1650.82 22.99 1687.43 25.81 1687.94 20.09 1688.74 20.88 1688.45 26.57 1652.2 24.01"/>
        </g>
        <g>
          <polygon class="cls-23" points="1660.16 59.53 1621.57 54.42 1625.68 50.66 1663.61 54.83 1660.16 59.53"/>
          <polygon class="cls-18" points="1621.4 56.04 1621.57 54.42 1660.16 59.53 1663.61 54.83 1663.44 56.46 1659.86 61.62 1621.4 56.04"/>
        </g>
      </g>
      <g>
        <polygon class="cls-23" points="1665.05 52.95 1626.47 47.85 1630.58 44.08 1668.51 48.25 1665.05 52.95"/>
        <polygon class="cls-18" points="1626.3 49.47 1626.47 47.85 1665.05 52.95 1668.51 48.25 1668.34 49.88 1664.75 55.04 1626.3 49.47"/>
      </g>
    </g>
    <g>
      <polygon class="cls-13" points="1605.01 2.74 1650.19 26.23 1623.61 39.76 1605.01 2.74"/>
      <polygon class="cls-32" points="1593.87 40 1623.61 39.76 1605.01 2.74 1593.87 40"/>
      <polygon class="cls-34" points="1583.35 27.97 1593.87 40 1605.01 2.74 1583.35 27.97"/>
    </g>
    <polygon class="cls-2" points="1820.17 46.67 1816.51 46.51 1815.05 75.72 1818.72 75.88 1820.17 46.67"/>
    <g>
      <polygon class="cls-13" points="1810.5 7.89 1763.37 65.89 1806.9 70.31 1810.5 7.89"/>
      <polygon class="cls-32" points="1847 54.26 1806.9 70.31 1810.5 7.89 1847 54.26"/>
      <polygon class="cls-34" points="1854.19 31.51 1847 54.26 1810.5 7.89 1854.19 31.51"/>
    </g>
  </g>
  <polyline class="cls-11" points="-28.67 372.1 -28.67 206.6 752.83 141.6 583.33 15.6 870.83 15.6 1859 110 1814.83 216.1 1939.49 275.21 1939.49 414.86"/>
  <polygon class="cls-3" points="752.83 141.6 752.83 250.69 -119.19 354.1 -108.17 221.1 -28.67 206.6 752.83 141.6"/>
  <rect class="cls-11" x="-34.17" y="376.1" width="1964" height="1233"/>
  <polygon class="cls-3" points="870.83 15.6 870.83 53.9 634.85 53.9 583.33 15.6 870.83 15.6"/>
  <polygon class="cls-4" points="871 54 866 54 1874.12 364.34 1814.92 324.58 1814.92 293.38 871 54"/>
  <g>
    <polygon class="cls-29" points="252.83 239.1 252.83 329.33 -619.19 414.86 -608.17 304.85 -528.67 292.86 252.83 239.1"/>
    <polygon class="cls-29" points="292.83 318.73 292.83 408.96 -579.19 494.49 -568.17 384.48 -488.67 372.49 292.83 318.73"/>
    <polygon class="cls-21" points="292.83 319.1 -157.17 376.1 -166.17 348.1 251.83 300.1 292.83 319.1"/>
    <polygon class="cls-36" points="253.25 239.03 -290.82 302.15 -311.17 263.1 199.6 216.65 253.25 239.03"/>
  </g>
  <polygon class="cls-3" points="871 15.73 870.83 53.9 1785.83 285.1 1814.92 293.38 1815 216 1859 109.73 871 15.73"/>
  <polygon class="cls-26" points="583.5 15.73 753 141.73 -119.19 215.8 -119.19 180.99 693.91 125.1 576.83 13.58 878.4 13.58 1908.44 88.24 1902.83 217.1 1815 216 1859 109.73 871 15.73 583.5 15.73"/>
  <polygon class="cls-26" points="2027.83 317.1 1815 216 1902.83 217.1 2027.83 258.25 2027.83 317.1"/>
  <polygon class="cls-22" points="1815 216 1814.92 324.58 1959.83 421.89 2027.83 317.1 1815 216"/>
  <path class="cls-7" d="M720.91,38.79l405.18,1.09,78.61,7.59-145.88,14.62s52.17-5.31,41.08-11.65-379-11.65-379-11.65Z"/>
  <path class="cls-16" d="M991.83,178.78l565.46-97.76,130,12.37-103.8,140.62s51.7-57.42,29.52-83.67-291.15,77.41-291.15,77.41c0,0,149.3-59.16,105.63-77.41s-435.66,28.44-435.66,28.44Z"/>
  <path class="cls-9" d="M-89.17,326.98l933-120.38s-234.73,50.88-150.37,60.19,448.98-18.94,448.98-18.94c0,0-780.61,77.82-601.61,121.03,179,43.22-593.54,45.98-593.54,45.98l-36.46-87.88Z"/>
  <path class="cls-6" d="M2234.83,519.1l-768.17,691.45s611.17-233.83,406.17,92.36c-205,326.19-316.24,541.43-316.24,541.43l662.24-646.24,16-679Z"/>
  <polygon class="cls-15" points="1999.83 304.48 1813.83 217.1 1860 110.73 872 16.73 584.5 16.73 754 142.73 -37.17 214.65 -37.17 1630.1 1999.83 1630.1 1999.83 304.48"/>
</svg>