<?xml version="1.0" encoding="UTF-8"?>
<svg id="Layer_1" data-name="Layer 1" xmlns="http://www.w3.org/2000/svg" xmlns:xlink="http://www.w3.org/1999/xlink" viewBox="0 0 1920 720">
  <defs>
    <style>
      .cls-1, .cls-2, .cls-3, .cls-4, .cls-5, .cls-6, .cls-7 {
        opacity: .4;
      }

      .cls-1, .cls-8 {
        fill: #f0e7e6;
      }

      .cls-9, .cls-10 {
        fill: #fff;
      }

      .cls-2 {
        fill: #fff0ed;
      }

      .cls-11, .cls-12, .cls-13 {
        opacity: .2;
      }

      .cls-11, .cls-14, .cls-6, .cls-15 {
        fill: #f0f0e6;
      }

      .cls-16 {
        fill: url(#linear-gradient);
      }

      .cls-3, .cls-17 {
        fill: #ecfff9;
      }

      .cls-8, .cls-17, .cls-18, .cls-15, .cls-19 {
        opacity: .3;
      }

      .cls-20 {
        fill: #e0e0b9;
      }

      .cls-4, .cls-19 {
        fill: #e0e0cc;
      }

      .cls-21 {
        fill: #ffe1da;
      }

      .cls-10, .cls-14 {
        opacity: .5;
      }

      .cls-5, .cls-22 {
        fill: #bf958b;
      }

      .cls-23 {
        fill: #6f915c;
      }

      .cls-24 {
        fill: #93ac85;
      }

      .cls-25, .cls-13, .cls-7, .cls-18 {
        fill: #e6e2f0;
      }

      .cls-26 {
        fill: url(#radial-gradient);
      }

      .cls-27 {
        fill: #8ca77d;
      }

      .cls-28 {
        fill: #c2c273;
      }

      .cls-29 {
        fill: #fff0ec;
      }

      .cls-30 {
        fill: #bf877a;
      }

      .cls-30, .cls-31, .cls-22 {
        opacity: .6;
      }

      .cls-32 {
        fill: #ffc3b5;
      }

      .cls-31 {
        fill: #bfa39d;
      }
    </style>
    <radialGradient id="radial-gradient" cx="1755.83" cy="92.09" fx="2558.07" fy="-527.53" r="2575.18" gradientTransform="matrix(1, 0, 0, 1, 0, 0)" gradientUnits="userSpaceOnUse">
      <stop offset="0" stop-color="#fff4e9"/>
      <stop offset=".3" stop-color="#fcf3e9"/>
      <stop offset=".45" stop-color="#f5f3eb"/>
      <stop offset=".57" stop-color="#e7f2ed"/>
      <stop offset=".67" stop-color="#d5f0f1"/>
      <stop offset=".75" stop-color="#bdeef6"/>
      <stop offset=".83" stop-color="#9febfc"/>
      <stop offset=".86" stop-color="#94ebff"/>
    </radialGradient>
    <linearGradient id="linear-gradient" x1=".5" y1="1098.06" x2="2108.67" y2="1098.06" gradientTransform="matrix(1, 0, 0, 1, 0, 0)" gradientUnits="userSpaceOnUse">
      <stop offset="0" stop-color="#cbd2e2"/>
      <stop offset=".51" stop-color="#d7dfe4"/>
      <stop offset=".99" stop-color="#dde5e5"/>
    </linearGradient>
  </defs>
  <rect class="cls-26" x="-78.17" y="-54.9" width="2037" height="1194"/>
  <rect class="cls-10" x="-78.17" y="-66.9" width="2037" height="1194"/>
  <ellipse class="cls-20" cx="955.33" cy="708.6" rx="145.5" ry="117.5"/>
  <ellipse class="cls-20" cx="1213.33" cy="711.1" rx="181.5" ry="161"/>
  <path class="cls-9" d="M938.83,351.1l548.95-1-138.73-17,21.32-29.1,51.5-21.9-6.44-67.73-73.6-75.53-146,42.26,20,85-38.9-32.85-87.1-7.15-31,56-31.46,37-46.54-15.1-42,47.1Z"/>
  <polygon class="cls-9" points="-89.17 183.68 416.7 183.68 276.88 153 318.18 119.96 409.56 138.84 421.33 42.07 342.37 -42.9 225.83 -14.58 212.39 60.95 128.83 70.39 161.33 1.95 120.83 -57.9 17.83 -73.58 -45.17 -.9 -48.17 89.1 -26.5 164.8 -89.17 183.68"/>
  <path class="cls-9" d="M161.88,523.44l486.94,6.65-65-46,43-53,62.69,8.4-13.69-141.4-235.52,5.9-24.16,133.56-40.96-1.65-20.36-62.12-57.54,34.62,20.89,72.51h-92.35l-17.28-39.9-.55-43.91-46.67,4.82-69.55-6.9-17.56,56.46,35.73,25.06-33.12,28.57c8,16,37,32,37,32l47.51,14.82,21.96-12.01-21.41-16.46Z"/>
  <ellipse class="cls-20" cx="1679.33" cy="560.6" rx="142.5" ry="160.5"/>
  <ellipse class="cls-20" cx="1855.33" cy="616.6" rx="104.5" ry="161.5"/>
  <ellipse class="cls-20" cx="1381.33" cy="655.6" rx="135.5" ry="122.5"/>
  <ellipse class="cls-20" cx="237.33" cy="701.1" rx="92.5" ry="37"/>
  <ellipse class="cls-20" cx="-4.86" cy="603.6" rx="84.31" ry="159.5"/>
  <ellipse class="cls-20" cx="-3.17" cy="474.6" rx="86" ry="124.5"/>
  <ellipse class="cls-20" cx="24.83" cy="668.1" rx="179" ry="118"/>
  <polygon class="cls-20" points="58.05 514.18 -70.7 543.25 -160.25 446.27 -121.04 320.24 7.71 291.17 97.26 388.14 58.05 514.18"/>
  <polygon class="cls-20" points="1110.92 657.36 1050.01 682.34 997.91 642.08 1006.73 576.84 1067.64 551.86 1119.74 592.12 1110.92 657.36"/>
  <polygon class="cls-20" points="1351.9 547.44 1330.94 555.05 1313.87 540.71 1317.75 518.76 1338.71 511.14 1355.78 525.49 1351.9 547.44"/>
  <polygon class="cls-20" points="1842.88 548.92 1725.42 563.73 1653.86 469.41 1699.77 360.28 1817.23 345.47 1888.79 439.79 1842.88 548.92"/>
  <polygon class="cls-20" points="1834.47 753.35 1742.84 763.55 1688.2 689.3 1725.18 604.85 1816.81 594.65 1871.45 668.9 1834.47 753.35"/>
  <rect class="cls-20" x="17.83" y="465.1" width="99" height="100"/>
  <rect class="cls-20" x="1260.83" y="533.1" width="68" height="78"/>
  <rect class="cls-20" x="1821.83" y="333.1" width="162" height="162"/>
  <g>
    <path class="cls-28" d="M1225.81,561.53c9.57,0,18.97,.66,28.14,1.93v-5.96c-15.14-3.63-31.06-5.58-47.5-5.58-39.81,0-76.62,11.38-106.54,30.65l15.64,12.08c30.57-20.77,68.79-33.12,110.26-33.12Z"/>
    <path class="cls-28" d="M1549.31,568.03c0-81.54,53.98-148.87,123.89-159.14l2.91-6.93c-1.22-.03-2.44-.05-3.67-.05-78.7,0-142.5,71.86-142.5,160.5,0,78.68,50.27,144.13,116.6,157.85-56.51-21.31-97.24-81.41-97.24-152.23Z"/>
    <path class="cls-28" d="M1892.41,528.11c22.36,29.62,36.54,73.59,36.54,122.67,0,39.67-9.26,76-24.62,104.11,29.22-28.63,48.62-79.06,48.62-136.49,0-44.95-11.89-85.6-31.06-114.88h-19.14l-10.34,24.58Z"/>
    <path class="cls-28" d="M1393.88,536.17c-6.35-.82-12.83-1.26-19.43-1.26s-12.69,.41-18.86,1.19l-1.68,9.52c12.46-4.89,25.9-8.15,39.97-9.45Z"/>
    <path class="cls-28" d="M105.69,576.53c50.06,18.5,85.26,52.39,90.83,91.95,.13-.02,.26-.04,.4-.06-.8-42.27-35.29-79.18-86.61-99.6v7.71h-4.62Z"/>
    <path class="cls-28" d="M1009.85,585.03l59.76-24.51-8.85-6.84-60.91,24.98-2.84,20.97c3.53,1.01,7.01,2.13,10.41,3.35l2.43-17.95Z"/>
    <polygon class="cls-28" points="1318.87 521.94 1335.38 515.95 1331.83 512.96 1310.87 520.57 1308.34 534.91 1316.58 534.91 1318.87 521.94"/>
    <path class="cls-28" d="M75.94,476.53h34v-9.62h-34.25c.16,3.14,.25,6.3,.25,9.5,0,.04,0,.08,0,.12Z"/>
    <polygon class="cls-28" points="1834.31 365.67 1834.31 341.53 1976.94 341.53 1976.94 334.91 1814.94 334.91 1814.94 353.34 1825.18 366.83 1834.31 365.67"/>
    <path class="cls-28" d="M66.47,419.56c3.53,9.94,6.16,20.65,7.74,31.91l17.56-56.46L7.74,304l-9.14,2.06,77.18,83.58-9.31,29.92Z"/>
    <path class="cls-28" d="M1768.57,514.3c-11.38,11.15-21.27,25.6-29.1,42.48l4.24,5.59,6.92-.87c4.23-17.35,10.34-33.28,17.94-47.2Z"/>
    <path class="cls-28" d="M105.32,566.91c1.68,.62,3.34,1.25,4.98,1.91v-92.29h-.36v90.38h-4.62Z"/>
    <path class="cls-28" d="M1996.31,341.53h-19.36v155.38h-59.66c1.58,2.14,3.11,4.34,4.6,6.62h74.42v-162Z"/>
    <path class="cls-28" d="M1905.53,496.91h11.75c-2.48-3.36-5.06-6.54-7.74-9.53l-4.01,9.53Z"/>
  </g>
  <rect class="cls-29" x="1215.83" y="664.1" width="113" height="114"/>
  <rect class="cls-29" x="945.83" y="649.1" width="113" height="114"/>
  <rect class="cls-31" x="1215.83" y="665.1" width="13" height="41"/>
  <rect class="cls-29" x="203.83" y="664.1" width="113" height="114"/>
  <rect class="cls-21" x="329.83" y="433.1" width="183" height="305"/>
  <rect class="cls-21" x="604.83" y="412.1" width="183" height="305"/>
  <rect class="cls-21" x="102.83" y="586.1" width="183" height="131"/>
  <rect class="cls-21" x="1341.83" y="611.1" width="183" height="127"/>
  <path class="cls-21" d="M980.83,721.1h-145v-244c46,1.33,92,2.67,138,4,2.33,80,4.67,160,7,240Z"/>
  <rect class="cls-21" x="1767.83" y="550.1" width="183" height="183"/>
  <rect class="cls-22" x="1342.28" y="611.2" width="13.52" height="157.82"/>
  <rect class="cls-22" x="329.91" y="434.18" width="24.91" height="286.92"/>
  <rect class="cls-5" x="137.06" y="585.18" width="13.52" height="157.82"/>
  <rect class="cls-22" x="1767.31" y="550.1" width="13.52" height="157.82"/>
  <rect class="cls-16" x=".5" y="704.94" width="2108.16" height="786.24"/>
  <path class="cls-10" d="M442.83,513.37l56.69-16.22,20.86,19.99c66.44-4.04,130.44,3.99,130.44,3.99h101l91.94,11.54,193.18,3.82,6.88-24.4-139.34-9-85.29,12.53-75.37-32.15-72-10.39-40,30-66.54-2.57-45.45-25.92-77.01,38.77Z"/>
  <polygon class="cls-10" points="140.83 625.1 272.83 627.24 314.83 609.24 572.83 633.99 505.83 614.05 476.83 572.24 432.99 577.24 313.83 563.24 258.83 593.24 140.83 625.1"/>
  <polygon class="cls-10" points="1558.58 613.91 1470.18 615.5 1929.29 623.71 1742.16 599.54 1653.4 575.91 1552.87 599.57 1558.58 613.91"/>
  <polygon class="cls-27" points="-26.5 864.09 -31.5 801.21 512.83 783.1 400.43 707.17 -35.67 708.75 -26.5 864.09"/>
  <polygon class="cls-27" points="1959.83 756.85 1956.79 707.92 1726.83 716.1 1500.83 715.1 1370.95 705.91 1417.83 724.1 1542.22 735.3 1646.78 731.24 1931.34 727.4 1959.83 756.85"/>
  <polygon class="cls-12" points="82.83 715.49 70.83 715.49 -5.65 701.8 -7.3 693.1 1.83 692.16 25.83 690.1 82.83 715.49"/>
  <polygon class="cls-12" points="103.83 715.49 82.33 703.1 72.83 696.45 91.83 694.1 118.31 698.1 130.67 704.79 138.86 715.49 103.83 715.49"/>
  <polygon class="cls-12" points="152.83 715.49 134.83 707.1 108.83 700.1 109.16 692.1 136.83 692.68 162.48 702.6 169.33 712.26 152.83 715.49"/>
  <polygon class="cls-12" points="233.83 709.56 218.24 709.56 201.17 704.79 190.19 696.91 211.31 690.29 234.37 696.86 245.9 701.8 273.35 699.92 277.75 703.1 264.2 703.79 233.83 709.56"/>
  <polyline class="cls-12" points="312.53 702.87 304.19 706.16 311.18 710.03 320.42 710.03 335.73 706.1 329.83 701.1"/>
  <path class="cls-12" d="M1402.72,700.1l-24.04,5-8.86-5c4-5,16.8-6.51,16.8-6.51l40.24,3.84-24.14,2.66Z"/>
  <polygon class="cls-12" points="1437.83 717.68 1409.16 717.68 1406.85 709.26 1416.4 702.85 1426.86 705.1 1442.83 710.1 1450.18 720.1 1442.83 720.1 1437.83 717.68"/>
  <path class="cls-12" d="M1471.83,720.1l-14.24-2.42-14.76-7.58,3.28-6,22.13-1.25,14.59,11.25c-2,6-11,6-11,6Z"/>
  <polygon class="cls-12" points="1496.83 719.1 1486.5 717.68 1482.83 714.1 1495.72 709.26 1502.72 717.18 1496.83 719.1"/>
  <path class="cls-12" d="M1840.79,714.1l-6.29-.69-40.82-7.57-4.54-7c9.65-2.76,20.44-2.73,20.44-2.73l23.34,4.94,7.38,10.52,.49,2.54Z"/>
  <path class="cls-12" d="M1852.83,713.06l-21.82-2.8-13.66-7.56,5.71-8.61,22.86-1.73,23.91,8.73s4.8,1.26,9.9,5.63-1,6.35-1,6.35l-25.9-.02Z"/>
  <path class="cls-12" d="M1889.83,710.1l-4.77-2.71h-22.73l-7.01-6.3,10.51-3.71,17,3.73,7,1c7,8,0,8,0,8Z"/>
  <polygon class="cls-12" points="1500.83 715.1 1334.83 704.59 1447.82 706.08 1500.83 715.1"/>
  <polygon class="cls-12" points="1888.83 707.1 1726.83 716.1 1726.83 706.08 1767.31 707.92 1888.83 707.1"/>
  <polygon class="cls-12" points="520.83 706.1 335.73 706.1 344.31 701.41 520.83 706.1"/>
  <rect class="cls-32" x="450.83" y="260.1" width="234" height="446"/>
  <rect class="cls-32" x="1432.83" y="466.1" width="294" height="250"/>
  <rect class="cls-22" x="835.91" y="477.18" width="13.52" height="157.82"/>
  <rect class="cls-32" x="1835.83" y="362.1" width="234" height="346"/>
  <rect class="cls-32" x="-89.17" y="495.1" width="234" height="211"/>
  <rect class="cls-32" x="684.83" y="580.1" width="196" height="126"/>
  <rect class="cls-30" x="452.83" y="260.1" width="68" height="446"/>
  <rect class="cls-30" x="-89.17" y="495.1" width="107" height="209"/>
  <rect class="cls-30" x="1432.83" y="466.1" width="68" height="249"/>
  <rect class="cls-30" x="1834.83" y="360.1" width="41" height="346"/>
  <rect class="cls-6" x="532.83" y="266.1" width="16" height="32"/>
  <rect class="cls-7" x="553.83" y="266.1" width="16" height="32"/>
  <rect class="cls-6" x="574.83" y="266.1" width="16" height="32"/>
  <rect class="cls-6" x="595.83" y="266.1" width="16" height="32"/>
  <rect class="cls-6" x="617.83" y="266.1" width="16" height="32"/>
  <rect class="cls-6" x="638.83" y="266.1" width="16" height="32"/>
  <rect class="cls-7" x="659.83" y="266.1" width="16" height="32"/>
  <rect class="cls-7" x="532.83" y="319.1" width="16" height="32"/>
  <rect class="cls-6" x="553.83" y="312.1" width="16" height="39"/>
  <rect class="cls-6" x="574.83" y="319.1" width="16" height="32"/>
  <rect class="cls-6" x="595.83" y="319.1" width="16" height="32"/>
  <rect class="cls-6" x="617.83" y="319.1" width="16" height="32"/>
  <rect class="cls-7" x="638.83" y="319.1" width="16" height="32"/>
  <rect class="cls-6" x="659.83" y="319.1" width="16" height="32"/>
  <rect class="cls-6" x="533.83" y="365.1" width="16" height="32"/>
  <rect class="cls-7" x="554.83" y="365.1" width="16" height="32"/>
  <rect class="cls-6" x="575.83" y="365.1" width="16" height="32"/>
  <rect class="cls-6" x="596.83" y="365.1" width="16" height="32"/>
  <rect class="cls-6" x="618.83" y="365.1" width="16" height="32"/>
  <rect class="cls-6" x="639.83" y="365.1" width="16" height="32"/>
  <rect class="cls-6" x="660.83" y="365.1" width="16" height="32"/>
  <rect class="cls-6" x="533.83" y="415.1" width="16" height="32"/>
  <rect class="cls-3" x="554.83" y="415.1" width="16" height="32"/>
  <rect class="cls-6" x="575.83" y="415.1" width="16" height="32"/>
  <rect class="cls-6" x="596.83" y="415.1" width="16" height="32"/>
  <rect class="cls-6" x="618.83" y="415.1" width="16" height="32"/>
  <rect class="cls-6" x="639.83" y="415.1" width="16" height="32"/>
  <rect class="cls-6" x="660.83" y="415.1" width="16" height="32"/>
  <rect class="cls-6" x="533.83" y="468.1" width="16" height="32"/>
  <rect class="cls-6" x="554.83" y="468.1" width="16" height="32"/>
  <rect class="cls-6" x="575.83" y="468.1" width="16" height="32"/>
  <rect class="cls-6" x="596.83" y="468.1" width="16" height="32"/>
  <rect class="cls-7" x="618.83" y="468.1" width="16" height="32"/>
  <rect class="cls-6" x="639.83" y="468.1" width="16" height="32"/>
  <rect class="cls-6" x="660.83" y="468.1" width="16" height="32"/>
  <rect class="cls-6" x="534.83" y="514.1" width="16" height="32"/>
  <rect class="cls-6" x="555.83" y="514.1" width="16" height="32"/>
  <rect class="cls-6" x="576.83" y="514.1" width="16" height="32"/>
  <rect class="cls-6" x="597.83" y="514.1" width="16" height="32"/>
  <rect class="cls-6" x="619.83" y="514.1" width="16" height="32" transform="translate(-22.54 27.91) rotate(-2.5)"/>
  <rect class="cls-6" x="640.83" y="514.1" width="16" height="32"/>
  <rect class="cls-6" x="661.83" y="514.1" width="16" height="32"/>
  <rect class="cls-6" x="534.83" y="556.1" width="16" height="32"/>
  <rect class="cls-6" x="555.83" y="556.1" width="16" height="32"/>
  <rect class="cls-6" x="576.83" y="556.1" width="16" height="32"/>
  <rect class="cls-6" x="597.83" y="556.1" width="16" height="32"/>
  <rect class="cls-6" x="619.83" y="556.1" width="16" height="32"/>
  <rect class="cls-6" x="640.83" y="556.1" width="16" height="32"/>
  <rect class="cls-6" x="661.83" y="556.1" width="16" height="32"/>
  <rect class="cls-6" x="534.83" y="609.1" width="16" height="32"/>
  <rect class="cls-6" x="555.83" y="609.1" width="16" height="32"/>
  <rect class="cls-6" x="576.83" y="609.1" width="16" height="32"/>
  <rect class="cls-6" x="597.83" y="609.1" width="16" height="32"/>
  <rect class="cls-6" x="619.83" y="609.1" width="16" height="32"/>
  <rect class="cls-6" x="640.83" y="609.1" width="16" height="32"/>
  <rect class="cls-6" x="661.83" y="609.1" width="16" height="32"/>
  <rect class="cls-6" x="535.83" y="655.1" width="16" height="32"/>
  <rect class="cls-6" x="556.83" y="655.1" width="16" height="32"/>
  <rect class="cls-6" x="577.83" y="655.1" width="16" height="32"/>
  <rect class="cls-6" x="598.83" y="655.1" width="16" height="32"/>
  <rect class="cls-6" x="620.83" y="655.1" width="16" height="32"/>
  <rect class="cls-6" x="641.83" y="655.1" width="16" height="32"/>
  <rect class="cls-6" x="662.83" y="655.1" width="16" height="32"/>
  <path class="cls-1" d="M742.83,643.1h-16c.67-10.67,1.33-21.33,2-32h14v32Z"/>
  <rect class="cls-6" x="747.83" y="611.1" width="16" height="32"/>
  <rect class="cls-3" x="768.83" y="611.1" width="16" height="32"/>
  <rect class="cls-6" x="789.83" y="611.1" width="16" height="32"/>
  <rect class="cls-6" x="811.83" y="611.1" width="16" height="32"/>
  <rect class="cls-1" x="832.83" y="611.1" width="16" height="32"/>
  <rect class="cls-6" x="853.83" y="611.1" width="16" height="32"/>
  <rect class="cls-1" x="727.83" y="657.1" width="16" height="32"/>
  <rect class="cls-6" x="748.83" y="657.1" width="16" height="32"/>
  <rect class="cls-6" x="769.83" y="657.1" width="16" height="32"/>
  <rect class="cls-3" x="790.83" y="657.1" width="16" height="32"/>
  <rect class="cls-6" x="812.83" y="657.1" width="16" height="32"/>
  <rect class="cls-14" x="833.83" y="657.1" width="16" height="32"/>
  <rect class="cls-6" x="854.83" y="657.1" width="16" height="32"/>
  <polygon class="cls-7" points="728.83 642.1 728.83 643.1 744.83 643.1 744.83 611.1 742.83 611.1 742.83 642.1 728.83 642.1"/>
  <polygon class="cls-7" points="749.83 642.1 749.83 643.1 765.83 643.1 765.83 611.1 763.83 611.1 763.83 642.1 749.83 642.1"/>
  <polygon class="cls-7" points="770.83 642.1 770.83 643.1 786.83 643.1 786.83 611.1 784.83 611.1 784.83 642.1 770.83 642.1"/>
  <polygon class="cls-7" points="791.83 642.1 791.83 643.1 807.83 643.1 807.83 611.1 805.83 611.1 805.83 642.1 791.83 642.1"/>
  <polygon class="cls-7" points="813.83 642.1 813.83 643.1 829.83 643.1 829.83 611.1 827.83 611.1 827.83 642.1 813.83 642.1"/>
  <polygon class="cls-25" points="834.83 642.1 834.83 643.1 850.83 643.1 850.83 611.1 848.83 611.1 848.83 642.1 834.83 642.1"/>
  <polygon class="cls-25" points="855.83 642.1 855.83 643.1 871.83 643.1 871.83 611.1 869.83 611.1 869.83 642.1 855.83 642.1"/>
  <polygon class="cls-7" points="743.83 688.1 729.83 688.1 729.83 689.1 745.83 689.1 745.83 657.1 743.83 657.1 743.83 688.1"/>
  <polygon class="cls-7" points="764.83 688.1 750.83 688.1 750.83 689.1 766.83 689.1 766.83 657.1 764.83 657.1 764.83 688.1"/>
  <polygon class="cls-7" points="785.83 688.1 771.83 688.1 771.83 689.1 787.83 689.1 787.83 657.1 785.83 657.1 785.83 688.1"/>
  <polygon class="cls-7" points="806.83 688.1 792.83 688.1 792.83 689.1 808.83 689.1 808.83 657.1 806.83 657.1 806.83 688.1"/>
  <polygon class="cls-7" points="828.83 688.1 814.83 688.1 814.83 689.1 830.83 689.1 830.83 657.1 828.83 657.1 828.83 688.1"/>
  <polygon class="cls-25" points="849.83 688.1 835.83 688.1 835.83 689.1 851.83 689.1 851.83 657.1 849.83 657.1 849.83 688.1"/>
  <polygon class="cls-25" points="870.83 657.1 870.83 688.1 856.83 688.1 856.83 689.1 872.83 689.1 872.83 657.1 870.83 657.1"/>
  <polygon class="cls-7" points="728.83 611.1 742.83 611.1 742.83 610.1 726.83 610.1 726.83 642.1 728.83 642.1 728.83 611.1"/>
  <polygon class="cls-7" points="749.83 611.1 763.83 611.1 763.83 610.1 747.83 610.1 747.83 642.1 749.83 642.1 749.83 611.1"/>
  <polygon class="cls-7" points="770.83 611.1 784.83 611.1 784.83 610.1 768.83 610.1 768.83 642.1 770.83 642.1 770.83 611.1"/>
  <polygon class="cls-7" points="791.83 611.1 805.83 611.1 805.83 610.1 789.83 610.1 789.83 642.1 791.83 642.1 791.83 611.1"/>
  <polygon class="cls-7" points="813.83 611.1 827.83 611.1 827.83 610.1 811.83 610.1 811.83 642.1 813.83 642.1 813.83 611.1"/>
  <polygon class="cls-25" points="834.83 611.1 848.83 611.1 848.83 610.1 832.83 610.1 832.83 642.1 834.83 642.1 834.83 611.1"/>
  <polygon class="cls-25" points="855.83 611.1 869.83 611.1 869.83 610.1 853.83 610.1 853.83 642.1 855.83 642.1 855.83 611.1"/>
  <polygon class="cls-7" points="743.83 657.1 743.83 656.1 727.83 656.1 727.83 688.1 729.83 688.1 729.83 657.1 743.83 657.1"/>
  <polygon class="cls-7" points="764.83 657.1 764.83 656.1 748.83 656.1 748.83 688.1 750.83 688.1 750.83 657.1 764.83 657.1"/>
  <polygon class="cls-7" points="785.83 657.1 785.83 656.1 769.83 656.1 769.83 688.1 771.83 688.1 771.83 657.1 785.83 657.1"/>
  <polygon class="cls-7" points="806.83 657.1 806.83 656.1 790.83 656.1 790.83 688.1 792.83 688.1 792.83 657.1 806.83 657.1"/>
  <polygon class="cls-7" points="828.83 657.1 828.83 656.1 812.83 656.1 812.83 688.1 814.83 688.1 814.83 657.1 828.83 657.1"/>
  <polygon class="cls-25" points="849.83 657.1 849.83 656.1 833.83 656.1 833.83 688.1 835.83 688.1 835.83 657.1 849.83 657.1"/>
  <polygon class="cls-25" points="870.83 657.1 870.83 656.1 854.83 656.1 854.83 688.1 856.83 688.1 856.83 657.1 870.83 657.1"/>
  <rect class="cls-3" x="34.83" y="506.1" width="16" height="32"/>
  <rect class="cls-6" x="55.83" y="506.1" width="16" height="32"/>
  <rect class="cls-6" x="76.83" y="506.1" width="16" height="32"/>
  <rect class="cls-6" x="97.83" y="506.1" width="16" height="32"/>
  <rect class="cls-2" x="119.83" y="506.1" width="16" height="32"/>
  <rect class="cls-6" x="34.83" y="559.1" width="16" height="32"/>
  <rect class="cls-6" x="55.83" y="559.1" width="16" height="32"/>
  <rect class="cls-2" x="76.83" y="559.1" width="16" height="32"/>
  <rect class="cls-3" x="97.83" y="559.1" width="16" height="32"/>
  <rect class="cls-6" x="119.83" y="559.1" width="16" height="32"/>
  <rect class="cls-3" x="35.83" y="605.1" width="16" height="32"/>
  <rect class="cls-6" x="56.83" y="605.1" width="16" height="32"/>
  <rect class="cls-6" x="77.83" y="605.1" width="16" height="32"/>
  <rect class="cls-6" x="98.83" y="605.1" width="16" height="32"/>
  <rect class="cls-6" x="120.83" y="605.1" width="16" height="32"/>
  <rect class="cls-6" x="35.83" y="655.1" width="16" height="32"/>
  <rect class="cls-6" x="56.83" y="655.1" width="16" height="32"/>
  <rect class="cls-2" x="77.83" y="655.1" width="16" height="32"/>
  <rect class="cls-6" x="98.83" y="655.1" width="16" height="32"/>
  <rect class="cls-6" x="120.83" y="655.1" width="16" height="32"/>
  <polygon class="cls-4" points="34.83 538.1 34.83 539.1 50.83 539.1 50.83 507.1 48.83 507.1 48.83 538.1 34.83 538.1"/>
  <polygon class="cls-4" points="55.83 538.1 55.83 539.1 71.83 539.1 71.83 507.1 69.83 507.1 69.83 538.1 55.83 538.1"/>
  <polygon class="cls-4" points="76.83 538.1 76.83 539.1 92.83 539.1 92.83 507.1 90.83 507.1 90.83 538.1 76.83 538.1"/>
  <polygon class="cls-4" points="97.83 538.1 97.83 539.1 113.83 539.1 113.83 507.1 111.83 507.1 111.83 538.1 97.83 538.1"/>
  <polygon class="cls-4" points="119.83 538.1 119.83 539.1 135.83 539.1 135.83 507.1 133.83 507.1 133.83 538.1 119.83 538.1"/>
  <polygon class="cls-4" points="34.83 591.1 34.83 592.1 50.83 592.1 50.83 560.1 48.83 560.1 48.83 591.1 34.83 591.1"/>
  <polygon class="cls-4" points="55.83 591.1 55.83 592.1 71.83 592.1 71.83 560.1 69.83 560.1 69.83 591.1 55.83 591.1"/>
  <polygon class="cls-4" points="76.83 591.1 76.83 592.1 92.83 592.1 92.83 560.1 90.83 560.1 90.83 591.1 76.83 591.1"/>
  <polygon class="cls-4" points="97.83 591.1 97.83 592.1 113.83 592.1 113.83 560.1 111.83 560.1 111.83 591.1 97.83 591.1"/>
  <polygon class="cls-4" points="119.83 591.1 119.83 592.1 135.83 592.1 135.83 560.1 133.83 560.1 133.83 591.1 119.83 591.1"/>
  <polygon class="cls-4" points="49.83 637.1 35.83 637.1 35.83 638.1 51.83 638.1 51.83 606.1 49.83 606.1 49.83 637.1"/>
  <polygon class="cls-4" points="70.83 637.1 56.83 637.1 56.83 638.1 72.83 638.1 72.83 606.1 70.83 606.1 70.83 637.1"/>
  <polygon class="cls-4" points="91.83 637.1 77.83 637.1 77.83 638.1 93.83 638.1 93.83 606.1 91.83 606.1 91.83 637.1"/>
  <polygon class="cls-4" points="112.83 637.1 98.83 637.1 98.83 638.1 114.83 638.1 114.83 606.1 112.83 606.1 112.83 637.1"/>
  <polygon class="cls-4" points="134.83 637.1 120.83 637.1 120.83 638.1 136.83 638.1 136.83 606.1 134.83 606.1 134.83 637.1"/>
  <polygon class="cls-4" points="51.83 688.1 51.83 656.1 49.83 656.1 49.83 687.1 35.83 687.1 35.83 688.1 51.83 688.1"/>
  <polygon class="cls-4" points="72.83 688.1 72.83 656.1 70.83 656.1 70.83 687.1 56.83 687.1 56.83 688.1 72.83 688.1"/>
  <polygon class="cls-4" points="93.83 688.1 93.83 656.1 91.83 656.1 91.83 687.1 77.83 687.1 77.83 688.1 93.83 688.1"/>
  <polygon class="cls-4" points="114.83 688.1 114.83 656.1 112.83 656.1 112.83 687.1 98.83 687.1 98.83 688.1 114.83 688.1"/>
  <polygon class="cls-4" points="34.83 507.1 48.83 507.1 48.83 506.1 32.83 506.1 32.83 538.1 34.83 538.1 34.83 507.1"/>
  <polygon class="cls-4" points="55.83 507.1 69.83 507.1 69.83 506.1 53.83 506.1 53.83 538.1 55.83 538.1 55.83 507.1"/>
  <polygon class="cls-4" points="76.83 507.1 90.83 507.1 90.83 506.1 74.83 506.1 74.83 538.1 76.83 538.1 76.83 507.1"/>
  <polygon class="cls-4" points="97.83 507.1 111.83 507.1 111.83 506.1 95.83 506.1 95.83 538.1 97.83 538.1 97.83 507.1"/>
  <polygon class="cls-4" points="119.83 507.1 133.83 507.1 133.83 506.1 117.83 506.1 117.83 538.1 119.83 538.1 119.83 507.1"/>
  <polygon class="cls-4" points="34.83 560.1 48.83 560.1 48.83 559.1 32.83 559.1 32.83 591.1 34.83 591.1 34.83 560.1"/>
  <polygon class="cls-4" points="55.83 560.1 69.83 560.1 69.83 559.1 53.83 559.1 53.83 591.1 55.83 591.1 55.83 560.1"/>
  <polygon class="cls-4" points="76.83 560.1 90.83 560.1 90.83 559.1 74.83 559.1 74.83 591.1 76.83 591.1 76.83 560.1"/>
  <polygon class="cls-4" points="97.83 560.1 111.83 560.1 111.83 559.1 95.83 559.1 95.83 591.1 97.83 591.1 97.83 560.1"/>
  <polygon class="cls-4" points="119.83 560.1 133.83 560.1 133.83 559.1 117.83 559.1 117.83 591.1 119.83 591.1 119.83 560.1"/>
  <polygon class="cls-4" points="49.83 606.1 49.83 605.1 33.83 605.1 33.83 637.1 35.83 637.1 35.83 606.1 49.83 606.1"/>
  <polygon class="cls-4" points="70.83 606.1 70.83 605.1 54.83 605.1 54.83 637.1 56.83 637.1 56.83 606.1 70.83 606.1"/>
  <polygon class="cls-4" points="91.83 606.1 91.83 605.1 75.83 605.1 75.83 637.1 77.83 637.1 77.83 606.1 91.83 606.1"/>
  <polygon class="cls-4" points="112.83 606.1 112.83 605.1 96.83 605.1 96.83 637.1 98.83 637.1 98.83 606.1 112.83 606.1"/>
  <polygon class="cls-4" points="134.83 606.1 134.83 605.1 118.83 605.1 118.83 637.1 120.83 637.1 120.83 606.1 134.83 606.1"/>
  <polygon class="cls-4" points="49.83 656.1 49.83 655.1 33.83 655.1 33.83 687.1 35.83 687.1 35.83 656.1 49.83 656.1"/>
  <polygon class="cls-4" points="70.83 656.1 70.83 655.1 54.83 655.1 54.83 687.1 56.83 687.1 56.83 656.1 70.83 656.1"/>
  <polygon class="cls-4" points="91.83 656.1 91.83 655.1 75.83 655.1 75.83 687.1 77.83 687.1 77.83 656.1 91.83 656.1"/>
  <polygon class="cls-4" points="112.83 656.1 112.83 655.1 96.83 655.1 96.83 687.1 98.83 687.1 98.83 656.1 112.83 656.1"/>
  <polygon class="cls-4" points="134.83 656.1 134.83 655.1 118.83 655.1 118.83 687.1 120.83 687.1 120.83 656.1 134.83 656.1"/>
  <rect class="cls-15" x="1517.83" y="482.1" width="21.63" height="23.66"/>
  <rect class="cls-15" x="1546.21" y="482.1" width="21.63" height="23.66"/>
  <rect class="cls-15" x="1574.6" y="482.1" width="21.63" height="23.66"/>
  <rect class="cls-15" x="1602.98" y="482.1" width="21.63" height="23.66"/>
  <rect class="cls-15" x="1632.72" y="482.1" width="21.63" height="23.66"/>
  <rect class="cls-15" x="1661.11" y="482.1" width="21.63" height="23.66"/>
  <rect class="cls-18" x="1689.49" y="482.1" width="21.63" height="23.66"/>
  <rect class="cls-15" x="1517.83" y="521.28" width="21.63" height="23.66"/>
  <rect class="cls-15" x="1546.21" y="521.28" width="21.63" height="23.66"/>
  <rect class="cls-18" x="1574.6" y="521.28" width="21.63" height="23.66"/>
  <rect class="cls-18" x="1602.98" y="521.28" width="21.63" height="23.66"/>
  <rect class="cls-15" x="1632.72" y="521.28" width="21.63" height="23.66"/>
  <rect class="cls-15" x="1661.11" y="521.28" width="21.63" height="23.66"/>
  <rect class="cls-15" x="1689.49" y="521.28" width="21.63" height="23.66"/>
  <rect class="cls-15" x="1519.18" y="555.29" width="21.63" height="23.66"/>
  <rect class="cls-8" x="1547.56" y="555.29" width="21.63" height="23.66"/>
  <rect class="cls-15" x="1575.95" y="555.29" width="21.63" height="23.66"/>
  <rect class="cls-15" x="1604.34" y="555.29" width="21.63" height="23.66"/>
  <rect class="cls-15" x="1634.07" y="555.29" width="21.63" height="23.66"/>
  <rect class="cls-15" x="1662.46" y="555.29" width="21.63" height="23.66"/>
  <rect class="cls-15" x="1690.85" y="555.29" width="21.63" height="23.66"/>
  <rect class="cls-15" x="1519.18" y="592.25" width="21.63" height="23.66"/>
  <rect class="cls-15" x="1547.56" y="592.25" width="21.63" height="23.66"/>
  <rect class="cls-15" x="1575.95" y="592.25" width="21.63" height="23.66"/>
  <rect class="cls-15" x="1604.34" y="592.25" width="21.63" height="23.66"/>
  <rect class="cls-15" x="1634.07" y="592.25" width="21.63" height="23.66"/>
  <rect class="cls-15" x="1662.46" y="592.25" width="21.63" height="23.66"/>
  <rect class="cls-15" x="1690.85" y="592.25" width="21.63" height="23.66"/>
  <rect class="cls-15" x="1519.18" y="631.44" width="21.63" height="23.66"/>
  <rect class="cls-15" x="1547.56" y="631.44" width="21.63" height="23.66"/>
  <rect class="cls-15" x="1575.95" y="631.44" width="21.63" height="23.66"/>
  <rect class="cls-8" x="1604.34" y="631.44" width="21.63" height="23.66"/>
  <rect class="cls-8" x="1634.07" y="631.44" width="21.63" height="23.66"/>
  <rect class="cls-15" x="1662.46" y="631.44" width="21.63" height="23.66"/>
  <rect class="cls-15" x="1690.85" y="631.44" width="21.63" height="23.66"/>
  <rect class="cls-15" x="1520.53" y="665.44" width="21.63" height="23.66"/>
  <rect class="cls-15" x="1548.91" y="665.44" width="21.63" height="23.66"/>
  <rect class="cls-15" x="1577.3" y="665.44" width="21.63" height="23.66"/>
  <rect class="cls-15" x="1605.69" y="665.44" width="21.63" height="23.66"/>
  <rect class="cls-15" x="1635.43" y="665.44" width="21.63" height="23.66"/>
  <rect class="cls-15" x="1663.81" y="665.44" width="21.63" height="23.66"/>
  <rect class="cls-17" x="1692.2" y="665.44" width="21.63" height="23.66"/>
  <polygon class="cls-19" points="1521.48 505.67 1521.48 506.41 1542.7 506.41 1542.7 482.84 1540.05 482.84 1540.05 505.67 1521.48 505.67"/>
  <polygon class="cls-19" points="1549.34 505.67 1549.34 506.41 1570.56 506.41 1570.56 482.84 1567.91 482.84 1567.91 505.67 1549.34 505.67"/>
  <polygon class="cls-19" points="1577.19 505.67 1577.19 506.41 1598.42 506.41 1598.42 482.84 1595.76 482.84 1595.76 505.67 1577.19 505.67"/>
  <polygon class="cls-19" points="1605.05 505.67 1605.05 506.41 1626.27 506.41 1626.27 482.84 1623.62 482.84 1623.62 505.67 1605.05 505.67"/>
  <polygon class="cls-19" points="1634.23 505.67 1634.23 506.41 1655.46 506.41 1655.46 482.84 1652.8 482.84 1652.8 505.67 1634.23 505.67"/>
  <polygon class="cls-19" points="1662.09 505.67 1662.09 506.41 1683.31 506.41 1683.31 482.84 1680.66 482.84 1680.66 505.67 1662.09 505.67"/>
  <polygon class="cls-19" points="1689.95 505.67 1689.95 506.41 1711.17 506.41 1711.17 482.84 1708.52 482.84 1708.52 505.67 1689.95 505.67"/>
  <polygon class="cls-19" points="1521.48 544.71 1521.48 545.45 1542.7 545.45 1542.7 521.88 1540.05 521.88 1540.05 544.71 1521.48 544.71"/>
  <polygon class="cls-19" points="1549.34 544.71 1549.34 545.45 1570.56 545.45 1570.56 521.88 1567.91 521.88 1567.91 544.71 1549.34 544.71"/>
  <polygon class="cls-19" points="1577.19 544.71 1577.19 545.45 1598.42 545.45 1598.42 521.88 1595.76 521.88 1595.76 544.71 1577.19 544.71"/>
  <polygon class="cls-19" points="1605.05 544.71 1605.05 545.45 1626.27 545.45 1626.27 521.88 1623.62 521.88 1623.62 544.71 1605.05 544.71"/>
  <polygon class="cls-19" points="1634.23 544.71 1634.23 545.45 1655.46 545.45 1655.46 521.88 1652.8 521.88 1652.8 544.71 1634.23 544.71"/>
  <polygon class="cls-19" points="1662.09 544.71 1662.09 545.45 1683.31 545.45 1683.31 521.88 1680.66 521.88 1680.66 544.71 1662.09 544.71"/>
  <polygon class="cls-19" points="1689.95 544.71 1689.95 545.45 1711.17 545.45 1711.17 521.88 1708.52 521.88 1708.52 544.71 1689.95 544.71"/>
  <polygon class="cls-19" points="1541.38 578.6 1522.8 578.6 1522.8 579.34 1544.03 579.34 1544.03 555.76 1541.38 555.76 1541.38 578.6"/>
  <polygon class="cls-19" points="1569.23 578.6 1550.66 578.6 1550.66 579.34 1571.89 579.34 1571.89 555.76 1569.23 555.76 1569.23 578.6"/>
  <polygon class="cls-19" points="1597.09 578.6 1578.52 578.6 1578.52 579.34 1599.74 579.34 1599.74 555.76 1597.09 555.76 1597.09 578.6"/>
  <polygon class="cls-19" points="1624.95 578.6 1606.38 578.6 1606.38 579.34 1627.6 579.34 1627.6 555.76 1624.95 555.76 1624.95 578.6"/>
  <polygon class="cls-19" points="1654.13 578.6 1635.56 578.6 1635.56 579.34 1656.78 579.34 1656.78 555.76 1654.13 555.76 1654.13 578.6"/>
  <polygon class="cls-19" points="1681.99 578.6 1663.42 578.6 1663.42 579.34 1684.64 579.34 1684.64 555.76 1681.99 555.76 1681.99 578.6"/>
  <polygon class="cls-19" points="1709.85 578.6 1691.27 578.6 1691.27 579.34 1712.5 579.34 1712.5 555.76 1709.85 555.76 1709.85 578.6"/>
  <polygon class="cls-19" points="1544.03 616.17 1544.03 592.6 1541.38 592.6 1541.38 615.43 1522.8 615.43 1522.8 616.17 1544.03 616.17"/>
  <polygon class="cls-19" points="1571.89 616.17 1571.89 592.6 1569.23 592.6 1569.23 615.43 1550.66 615.43 1550.66 616.17 1571.89 616.17"/>
  <polygon class="cls-19" points="1599.74 616.17 1599.74 592.6 1597.09 592.6 1597.09 615.43 1578.52 615.43 1578.52 616.17 1599.74 616.17"/>
  <polygon class="cls-19" points="1627.6 616.17 1627.6 592.6 1624.95 592.6 1624.95 615.43 1606.38 615.43 1606.38 616.17 1627.6 616.17"/>
  <polygon class="cls-19" points="1656.78 616.17 1656.78 592.6 1654.13 592.6 1654.13 615.43 1635.56 615.43 1635.56 616.17 1656.78 616.17"/>
  <polygon class="cls-19" points="1684.64 616.17 1684.64 592.6 1681.99 592.6 1681.99 615.43 1663.42 615.43 1663.42 616.17 1684.64 616.17"/>
  <polygon class="cls-19" points="1712.5 616.17 1712.5 592.6 1709.85 592.6 1709.85 615.43 1691.27 615.43 1691.27 616.17 1712.5 616.17"/>
  <polygon class="cls-19" points="1522.8 654.48 1522.8 655.21 1544.03 655.21 1544.03 631.64 1541.38 631.64 1541.38 654.48 1522.8 654.48"/>
  <polygon class="cls-19" points="1550.66 654.48 1550.66 655.21 1571.89 655.21 1571.89 631.64 1569.23 631.64 1569.23 654.48 1550.66 654.48"/>
  <polygon class="cls-19" points="1578.52 654.48 1578.52 655.21 1599.74 655.21 1599.74 631.64 1597.09 631.64 1597.09 654.48 1578.52 654.48"/>
  <polygon class="cls-19" points="1606.38 654.48 1606.38 655.21 1627.6 655.21 1627.6 631.64 1624.95 631.64 1624.95 654.48 1606.38 654.48"/>
  <polygon class="cls-19" points="1635.56 654.48 1635.56 655.21 1656.78 655.21 1656.78 631.64 1654.13 631.64 1654.13 654.48 1635.56 654.48"/>
  <polygon class="cls-19" points="1663.42 654.48 1663.42 655.21 1684.64 655.21 1684.64 631.64 1681.99 631.64 1681.99 654.48 1663.42 654.48"/>
  <polygon class="cls-19" points="1691.27 654.48 1691.27 655.21 1712.5 655.21 1712.5 631.64 1709.85 631.64 1709.85 654.48 1691.27 654.48"/>
  <polygon class="cls-19" points="1545.36 665.53 1542.7 665.53 1542.7 688.36 1524.13 688.36 1524.13 689.1 1545.36 689.1 1545.36 665.53"/>
  <polygon class="cls-19" points="1573.21 665.53 1570.56 665.53 1570.56 688.36 1551.99 688.36 1551.99 689.1 1573.21 689.1 1573.21 665.53"/>
  <polygon class="cls-19" points="1601.07 665.53 1598.42 665.53 1598.42 688.36 1579.85 688.36 1579.85 689.1 1601.07 689.1 1601.07 665.53"/>
  <polygon class="cls-19" points="1628.93 665.53 1626.27 665.53 1626.27 688.36 1607.7 688.36 1607.7 689.1 1628.93 689.1 1628.93 665.53"/>
  <polygon class="cls-19" points="1658.11 665.53 1655.46 665.53 1655.46 688.36 1636.89 688.36 1636.89 689.1 1658.11 689.1 1658.11 665.53"/>
  <polygon class="cls-19" points="1685.97 665.53 1683.31 665.53 1683.31 688.36 1664.74 688.36 1664.74 689.1 1685.97 689.1 1685.97 665.53"/>
  <polygon class="cls-19" points="1713.83 665.53 1711.17 665.53 1711.17 688.36 1692.6 688.36 1692.6 689.1 1713.83 689.1 1713.83 665.53"/>
  <polygon class="cls-19" points="1521.48 482.84 1540.05 482.84 1540.05 482.1 1518.83 482.1 1518.83 505.67 1521.48 505.67 1521.48 482.84"/>
  <polygon class="cls-19" points="1549.34 482.84 1567.91 482.84 1567.91 482.1 1546.68 482.1 1546.68 505.67 1549.34 505.67 1549.34 482.84"/>
  <polygon class="cls-19" points="1577.19 482.84 1595.76 482.84 1595.76 482.1 1574.54 482.1 1574.54 505.67 1577.19 505.67 1577.19 482.84"/>
  <polygon class="cls-19" points="1605.05 482.84 1623.62 482.84 1623.62 482.1 1602.4 482.1 1602.4 505.67 1605.05 505.67 1605.05 482.84"/>
  <polygon class="cls-19" points="1634.23 482.84 1652.8 482.84 1652.8 482.1 1631.58 482.1 1631.58 505.67 1634.23 505.67 1634.23 482.84"/>
  <polygon class="cls-19" points="1662.09 482.84 1680.66 482.84 1680.66 482.1 1659.44 482.1 1659.44 505.67 1662.09 505.67 1662.09 482.84"/>
  <polygon class="cls-19" points="1689.95 482.84 1708.52 482.84 1708.52 482.1 1687.29 482.1 1687.29 505.67 1689.95 505.67 1689.95 482.84"/>
  <polygon class="cls-19" points="1521.48 521.88 1540.05 521.88 1540.05 521.14 1518.83 521.14 1518.83 544.71 1521.48 544.71 1521.48 521.88"/>
  <polygon class="cls-8" points="1549.34 521.88 1567.91 521.88 1567.91 521.14 1546.68 521.14 1546.68 544.71 1549.34 544.71 1549.34 521.88"/>
  <polygon class="cls-19" points="1577.19 521.88 1595.76 521.88 1595.76 521.14 1574.54 521.14 1574.54 544.71 1577.19 544.71 1577.19 521.88"/>
  <polygon class="cls-19" points="1605.05 521.88 1623.62 521.88 1623.62 521.14 1602.4 521.14 1602.4 544.71 1605.05 544.71 1605.05 521.88"/>
  <polygon class="cls-19" points="1634.23 521.88 1652.8 521.88 1652.8 521.14 1631.58 521.14 1631.58 544.71 1634.23 544.71 1634.23 521.88"/>
  <polygon class="cls-19" points="1662.09 521.88 1680.66 521.88 1680.66 521.14 1659.44 521.14 1659.44 544.71 1662.09 544.71 1662.09 521.88"/>
  <polygon class="cls-19" points="1689.95 521.88 1708.52 521.88 1708.52 521.14 1687.29 521.14 1687.29 544.71 1689.95 544.71 1689.95 521.88"/>
  <polygon class="cls-19" points="1541.38 555.76 1541.38 555.03 1520.15 555.03 1520.15 578.6 1522.8 578.6 1522.8 555.76 1541.38 555.76"/>
  <polygon class="cls-19" points="1569.23 555.76 1569.23 555.03 1548.01 555.03 1548.01 578.6 1550.66 578.6 1550.66 555.76 1569.23 555.76"/>
  <polygon class="cls-19" points="1597.09 555.76 1597.09 555.03 1575.87 555.03 1575.87 578.6 1578.52 578.6 1578.52 555.76 1597.09 555.76"/>
  <polygon class="cls-19" points="1624.95 555.76 1624.95 555.03 1603.72 555.03 1603.72 578.6 1606.38 578.6 1606.38 555.76 1624.95 555.76"/>
  <polygon class="cls-19" points="1654.13 555.76 1654.13 555.03 1632.91 555.03 1632.91 578.6 1635.56 578.6 1635.56 555.76 1654.13 555.76"/>
  <polygon class="cls-19" points="1681.99 555.76 1681.99 555.03 1660.76 555.03 1660.76 578.6 1663.42 578.6 1663.42 555.76 1681.99 555.76"/>
  <polygon class="cls-19" points="1709.85 555.76 1709.85 555.03 1688.62 555.03 1688.62 578.6 1691.27 578.6 1691.27 555.76 1709.85 555.76"/>
  <polygon class="cls-19" points="1541.38 592.6 1541.38 591.86 1520.15 591.86 1520.15 615.43 1522.8 615.43 1522.8 592.6 1541.38 592.6"/>
  <polygon class="cls-19" points="1569.23 592.6 1569.23 591.86 1548.01 591.86 1548.01 615.43 1550.66 615.43 1550.66 592.6 1569.23 592.6"/>
  <polygon class="cls-19" points="1597.09 592.6 1597.09 591.86 1575.87 591.86 1575.87 615.43 1578.52 615.43 1578.52 592.6 1597.09 592.6"/>
  <polygon class="cls-19" points="1624.95 592.6 1624.95 591.86 1603.72 591.86 1603.72 615.43 1606.38 615.43 1606.38 592.6 1624.95 592.6"/>
  <polygon class="cls-19" points="1654.13 592.6 1654.13 591.86 1632.91 591.86 1632.91 615.43 1635.56 615.43 1635.56 592.6 1654.13 592.6"/>
  <polygon class="cls-19" points="1681.99 592.6 1681.99 591.86 1660.76 591.86 1660.76 615.43 1663.42 615.43 1663.42 592.6 1681.99 592.6"/>
  <polygon class="cls-19" points="1709.85 592.6 1709.85 591.86 1688.62 591.86 1688.62 615.43 1691.27 615.43 1691.27 592.6 1709.85 592.6"/>
  <polygon class="cls-19" points="1522.8 631.64 1541.38 631.64 1541.38 630.9 1520.15 630.9 1520.15 654.48 1522.8 654.48 1522.8 631.64"/>
  <polygon class="cls-19" points="1550.66 631.64 1569.23 631.64 1569.23 630.9 1548.01 630.9 1548.01 654.48 1550.66 654.48 1550.66 631.64"/>
  <polygon class="cls-19" points="1578.52 631.64 1597.09 631.64 1597.09 630.9 1575.87 630.9 1575.87 654.48 1578.52 654.48 1578.52 631.64"/>
  <polygon class="cls-19" points="1606.38 631.64 1624.95 631.64 1624.95 630.9 1603.72 630.9 1603.72 654.48 1606.38 654.48 1606.38 631.64"/>
  <polygon class="cls-19" points="1635.56 631.64 1654.13 631.64 1654.13 630.9 1632.91 630.9 1632.91 654.48 1635.56 654.48 1635.56 631.64"/>
  <polygon class="cls-19" points="1663.42 631.64 1681.99 631.64 1681.99 630.9 1660.76 630.9 1660.76 654.48 1663.42 654.48 1663.42 631.64"/>
  <polygon class="cls-19" points="1691.27 631.64 1709.85 631.64 1709.85 630.9 1688.62 630.9 1688.62 654.48 1691.27 654.48 1691.27 631.64"/>
  <polygon class="cls-19" points="1542.7 665.53 1542.7 664.79 1521.48 664.79 1521.48 688.36 1524.13 688.36 1524.13 665.53 1542.7 665.53"/>
  <polygon class="cls-19" points="1570.56 665.53 1570.56 664.79 1549.34 664.79 1549.34 688.36 1551.99 688.36 1551.99 665.53 1570.56 665.53"/>
  <polygon class="cls-19" points="1598.42 665.53 1598.42 664.79 1577.19 664.79 1577.19 688.36 1579.85 688.36 1579.85 665.53 1598.42 665.53"/>
  <polygon class="cls-19" points="1626.27 665.53 1626.27 664.79 1605.05 664.79 1605.05 688.36 1607.7 688.36 1607.7 665.53 1626.27 665.53"/>
  <polygon class="cls-19" points="1655.46 665.53 1655.46 664.79 1634.23 664.79 1634.23 688.36 1636.89 688.36 1636.89 665.53 1655.46 665.53"/>
  <polygon class="cls-19" points="1683.31 665.53 1683.31 664.79 1662.09 664.79 1662.09 688.36 1664.74 688.36 1664.74 665.53 1683.31 665.53"/>
  <polygon class="cls-19" points="1711.17 665.53 1711.17 664.79 1689.95 664.79 1689.95 688.36 1692.6 688.36 1692.6 665.53 1711.17 665.53"/>
  <rect class="cls-15" x="1884.11" y="412.96" width="21.63" height="23.66"/>
  <rect class="cls-15" x="1885.46" y="446.97" width="21.63" height="23.66"/>
  <rect class="cls-15" x="1886.81" y="557.12" width="21.63" height="23.66"/>
  <polygon class="cls-19" points="1887.76 374.52 1906.33 374.52 1906.33 373.78 1885.11 373.78 1885.11 397.35 1887.76 397.35 1887.76 374.52"/>
  <polygon class="cls-19" points="1907.66 484.28 1907.66 483.54 1886.43 483.54 1886.43 507.11 1889.09 507.11 1889.09 484.28 1907.66 484.28"/>
  <polygon class="cls-19" points="1889.09 523.32 1907.66 523.32 1907.66 522.58 1886.43 522.58 1886.43 546.16 1889.09 546.16 1889.09 523.32"/>
  <rect class="cls-15" x="1884.11" y="449.96" width="21.63" height="23.66"/>
  <rect class="cls-15" x="1885.46" y="483.97" width="21.63" height="23.66"/>
  <rect class="cls-15" x="1886.81" y="594.12" width="21.63" height="23.66"/>
  <polygon class="cls-19" points="1887.76 411.52 1906.33 411.52 1906.33 410.78 1885.11 410.78 1885.11 434.35 1887.76 434.35 1887.76 411.52"/>
  <polygon class="cls-19" points="1907.66 521.28 1907.66 520.54 1886.43 520.54 1886.43 544.11 1889.09 544.11 1889.09 521.28 1907.66 521.28"/>
  <polygon class="cls-19" points="1889.09 560.32 1907.66 560.32 1907.66 559.58 1886.43 559.58 1886.43 583.16 1889.09 583.16 1889.09 560.32"/>
  <rect class="cls-15" x="1888.81" y="517.94" width="21.63" height="23.66" transform="translate(3799.25 1059.54) rotate(180)"/>
  <rect class="cls-15" x="1887.46" y="483.93" width="21.63" height="23.66" transform="translate(3796.55 991.52) rotate(180)"/>
  <rect class="cls-15" x="1886.11" y="373.78" width="21.63" height="23.66" transform="translate(3793.84 771.21) rotate(180)"/>
  <polygon class="cls-19" points="1906.79 580.04 1888.21 580.04 1888.21 580.78 1909.44 580.78 1909.44 557.21 1906.79 557.21 1906.79 580.04"/>
  <polygon class="cls-19" points="1886.89 470.28 1886.89 471.02 1908.11 471.02 1908.11 447.44 1905.46 447.44 1905.46 470.28 1886.89 470.28"/>
  <polygon class="cls-19" points="1905.46 431.24 1886.89 431.24 1886.89 431.97 1908.11 431.97 1908.11 408.4 1905.46 408.4 1905.46 431.24"/>
  <rect class="cls-15" x="1517.88" y="482.16" width="21.63" height="23.66"/>
  <rect class="cls-15" x="1546.26" y="482.16" width="21.63" height="23.66"/>
  <rect class="cls-15" x="1574.65" y="482.16" width="21.63" height="23.66"/>
  <rect class="cls-15" x="1517.88" y="521.34" width="21.63" height="23.66"/>
  <rect class="cls-15" x="1546.26" y="521.34" width="21.63" height="23.66"/>
  <rect class="cls-15" x="1519.23" y="555.35" width="21.63" height="23.66"/>
  <rect class="cls-8" x="1547.61" y="555.35" width="21.63" height="23.66"/>
  <rect class="cls-15" x="1519.23" y="592.31" width="21.63" height="23.66"/>
  <rect class="cls-6" x="532.83" y="266.1" width="16" height="32"/>
  <rect class="cls-7" x="553.83" y="266.1" width="16" height="32"/>
  <rect class="cls-6" x="574.83" y="266.1" width="16" height="32"/>
  <rect class="cls-6" x="617.83" y="266.1" width="16" height="32"/>
  <rect class="cls-7" x="532.83" y="319.1" width="16" height="32"/>
  <rect class="cls-6" x="553.83" y="312.1" width="16" height="39"/>
  <rect class="cls-6" x="574.83" y="319.1" width="16" height="32"/>
  <rect class="cls-6" x="595.83" y="319.1" width="16" height="32"/>
  <rect class="cls-6" x="533.83" y="365.1" width="16" height="32"/>
  <rect class="cls-7" x="554.83" y="365.1" width="16" height="32"/>
  <rect class="cls-6" x="575.83" y="365.1" width="16" height="32"/>
  <rect class="cls-6" x="533.83" y="415.1" width="16" height="32"/>
  <rect class="cls-3" x="554.83" y="415.1" width="16" height="32"/>
  <rect class="cls-6" x="533.83" y="468.1" width="16" height="32"/>
  <rect class="cls-6" x="554.83" y="468.1" width="16" height="32"/>
  <rect class="cls-6" x="534.83" y="514.1" width="16" height="32"/>
  <rect class="cls-6" x="555.83" y="514.1" width="16" height="32"/>
  <rect class="cls-6" x="534.83" y="556.1" width="16" height="32"/>
  <path class="cls-1" d="M742.83,643.1h-16c.67-10.67,1.33-21.33,2-32h14v32Z"/>
  <rect class="cls-6" x="747.83" y="611.1" width="16" height="32"/>
  <rect class="cls-3" x="768.83" y="611.1" width="16" height="32"/>
  <rect class="cls-6" x="811.83" y="611.1" width="16" height="32"/>
  <rect class="cls-1" x="727.83" y="657.1" width="16" height="32"/>
  <rect class="cls-6" x="748.83" y="657.1" width="16" height="32"/>
  <polygon class="cls-7" points="791.83 611.1 805.83 611.1 805.83 610.1 789.83 610.1 789.83 642.1 791.83 642.1 791.83 611.1"/>
  <rect class="cls-6" x="619.83" y="556.1" width="16" height="32"/>
  <rect class="cls-6" x="661.83" y="556.1" width="16" height="32"/>
  <rect class="cls-6" x="597.83" y="609.1" width="16" height="32"/>
  <rect class="cls-6" x="619.83" y="609.1" width="16" height="32"/>
  <rect class="cls-6" x="640.83" y="609.1" width="16" height="32"/>
  <rect class="cls-6" x="535.83" y="655.1" width="16" height="32"/>
  <rect class="cls-6" x="577.83" y="655.1" width="16" height="32"/>
  <rect class="cls-6" x="598.83" y="655.1" width="16" height="32"/>
  <rect class="cls-6" x="641.83" y="655.1" width="16" height="32"/>
  <rect class="cls-3" x="34.83" y="505.1" width="16" height="32"/>
  <rect class="cls-6" x="55.83" y="505.1" width="16" height="32"/>
  <rect class="cls-6" x="76.83" y="505.1" width="16" height="32"/>
  <rect class="cls-6" x="97.83" y="505.1" width="16" height="32"/>
  <rect class="cls-6" x="34.83" y="558.1" width="16" height="32"/>
  <rect class="cls-3" x="35.83" y="604.1" width="16" height="32"/>
  <rect class="cls-6" x="77.83" y="604.1" width="16" height="32"/>
  <rect class="cls-6" x="120.83" y="654.1" width="16" height="32"/>
  <rect class="cls-2" x="272.49" y="610.79" width="8.78" height="22.14"/>
  <rect class="cls-6" x="237.35" y="647.45" width="8.78" height="22.14"/>
  <rect class="cls-2" x="248.88" y="647.45" width="8.78" height="22.14"/>
  <rect class="cls-3" x="260.41" y="647.45" width="8.78" height="22.14"/>
  <rect class="cls-6" x="272.49" y="647.45" width="8.78" height="22.14"/>
  <rect class="cls-6" x="237.9" y="679.27" width="8.78" height="22.14"/>
  <rect class="cls-6" x="260.96" y="679.27" width="8.78" height="22.14"/>
  <rect class="cls-6" x="273.04" y="679.27" width="8.78" height="22.14"/>
  <polygon class="cls-4" points="268.65 701.41 260.96 701.41 260.96 702.1 269.75 702.1 269.75 679.96 268.65 679.96 268.65 701.41"/>
  <polygon class="cls-4" points="245.59 679.96 245.59 679.27 236.81 679.27 236.81 701.41 237.9 701.41 237.9 679.96 245.59 679.96"/>
  <polygon class="cls-4" points="268.65 679.96 268.65 679.27 259.86 679.27 259.86 701.41 260.96 701.41 260.96 679.96 268.65 679.96"/>
  <rect class="cls-3" x="225.83" y="610.1" width="8.78" height="22.14"/>
  <rect class="cls-6" x="237.35" y="610.1" width="8.78" height="22.14"/>
  <rect class="cls-6" x="248.88" y="610.1" width="8.78" height="22.14"/>
  <rect class="cls-6" x="260.41" y="610.1" width="8.78" height="22.14"/>
  <rect class="cls-6" x="225.83" y="646.76" width="8.78" height="22.14"/>
  <rect class="cls-3" x="226.37" y="678.58" width="8.78" height="22.14"/>
  <rect class="cls-6" x="249.43" y="678.58" width="8.78" height="22.14"/>
  <rect class="cls-2" x="208" y="610.15" width="8.78" height="22.14"/>
  <rect class="cls-6" x="172.86" y="646.82" width="8.78" height="22.14"/>
  <rect class="cls-2" x="184.39" y="646.82" width="8.78" height="22.14"/>
  <rect class="cls-3" x="195.92" y="646.82" width="8.78" height="22.14"/>
  <rect class="cls-6" x="208" y="646.82" width="8.78" height="22.14"/>
  <rect class="cls-6" x="173.41" y="678.64" width="8.78" height="22.14"/>
  <rect class="cls-6" x="196.47" y="678.64" width="8.78" height="22.14"/>
  <rect class="cls-6" x="208.55" y="678.64" width="8.78" height="22.14"/>
  <polygon class="cls-4" points="204.15 700.77 196.47 700.77 196.47 701.46 205.25 701.46 205.25 679.33 204.15 679.33 204.15 700.77"/>
  <rect class="cls-6" x="886.83" y="682.33" width="16" height="20.77"/>
  <rect class="cls-6" x="908.83" y="682.33" width="16" height="20.77"/>
  <rect class="cls-6" x="929.83" y="682.33" width="16" height="20.77"/>
  <rect class="cls-7" x="950.83" y="682.33" width="16" height="20.77"/>
  <rect class="cls-6" x="886.83" y="647.93" width="16" height="20.77"/>
  <rect class="cls-6" x="908.83" y="647.93" width="16" height="20.77"/>
  <rect class="cls-7" x="929.83" y="647.93" width="16" height="20.77"/>
  <rect class="cls-6" x="950.83" y="647.93" width="16" height="20.77"/>
  <rect class="cls-6" x="887.83" y="618.07" width="16" height="20.77"/>
  <rect class="cls-6" x="909.83" y="618.07" width="16" height="20.77"/>
  <rect class="cls-6" x="930.83" y="618.07" width="16" height="20.77"/>
  <rect class="cls-6" x="951.83" y="618.07" width="16" height="20.77"/>
  <rect class="cls-6" x="887.83" y="585.62" width="16" height="20.77"/>
  <rect class="cls-6" x="909.83" y="585.62" width="16" height="20.77"/>
  <rect class="cls-6" x="930.83" y="585.62" width="16" height="20.77"/>
  <rect class="cls-6" x="951.83" y="585.62" width="16" height="20.77"/>
  <rect class="cls-6" x="887.83" y="551.22" width="16" height="20.77"/>
  <rect class="cls-7" x="909.83" y="551.22" width="16" height="20.77"/>
  <rect class="cls-6" x="930.83" y="551.22" width="16" height="20.77"/>
  <rect class="cls-6" x="951.83" y="551.22" width="16" height="20.77"/>
  <rect class="cls-6" x="867.83" y="521.36" width="16" height="20.77"/>
  <rect class="cls-6" x="888.83" y="521.36" width="16" height="20.77"/>
  <polygon class="cls-6" points="927.52 521.6 911.53 521.14 910.13 541.89 926.12 542.35 927.52 521.6"/>
  <rect class="cls-6" x="931.83" y="521.36" width="16" height="20.77"/>
  <rect class="cls-6" x="952.83" y="521.36" width="16" height="20.77"/>
  <rect class="cls-6" x="867.83" y="494.1" width="16" height="20.77"/>
  <rect class="cls-6" x="888.83" y="494.1" width="16" height="20.77"/>
  <rect class="cls-6" x="910.83" y="494.1" width="16" height="20.77"/>
  <rect class="cls-6" x="931.83" y="494.1" width="16" height="20.77"/>
  <rect class="cls-6" x="952.83" y="494.1" width="16" height="20.77"/>
  <rect class="cls-6" x="908.83" y="682.33" width="16" height="20.77"/>
  <rect class="cls-6" x="886.83" y="647.93" width="16" height="20.77"/>
  <rect class="cls-6" x="910.83" y="494.1" width="16" height="20.77"/>
  <rect class="cls-6" x="952.83" y="494.1" width="16" height="20.77"/>
  <polygon class="cls-4" points="181.1 679.33 181.1 678.64 172.31 678.64 172.31 700.77 173.41 700.77 173.41 679.33 181.1 679.33"/>
  <polygon class="cls-4" points="204.15 679.33 204.15 678.64 195.37 678.64 195.37 700.77 196.47 700.77 196.47 679.33 204.15 679.33"/>
  <rect class="cls-3" x="161.33" y="609.46" width="8.78" height="22.14"/>
  <rect class="cls-6" x="172.86" y="609.46" width="8.78" height="22.14"/>
  <rect class="cls-6" x="184.39" y="609.46" width="8.78" height="22.14"/>
  <rect class="cls-6" x="195.92" y="609.46" width="8.78" height="22.14"/>
  <rect class="cls-6" x="161.33" y="646.12" width="8.78" height="22.14"/>
  <rect class="cls-3" x="161.88" y="677.94" width="8.78" height="22.14"/>
  <rect class="cls-6" x="184.94" y="677.94" width="8.78" height="22.14"/>
  <rect class="cls-2" x="439.76" y="438.25" width="8.78" height="22.14"/>
  <rect class="cls-6" x="404.62" y="474.91" width="8.78" height="22.14"/>
  <rect class="cls-2" x="416.15" y="474.91" width="8.78" height="22.14"/>
  <rect class="cls-3" x="427.68" y="474.91" width="8.78" height="22.14"/>
  <rect class="cls-6" x="439.76" y="474.91" width="8.78" height="22.14"/>
  <rect class="cls-6" x="405.17" y="506.73" width="8.78" height="22.14"/>
  <rect class="cls-6" x="428.23" y="506.73" width="8.78" height="22.14"/>
  <rect class="cls-6" x="440.31" y="506.73" width="8.78" height="22.14"/>
  <polygon class="cls-4" points="435.92 528.87 428.23 528.87 428.23 529.56 437.01 529.56 437.01 507.42 435.92 507.42 435.92 528.87"/>
  <polygon class="cls-4" points="412.86 507.42 412.86 506.73 404.07 506.73 404.07 528.87 405.17 528.87 405.17 507.42 412.86 507.42"/>
  <polygon class="cls-4" points="435.92 507.42 435.92 506.73 427.13 506.73 427.13 528.87 428.23 528.87 428.23 507.42 435.92 507.42"/>
  <rect class="cls-3" x="393.09" y="437.56" width="8.78" height="22.14"/>
  <rect class="cls-6" x="404.62" y="437.56" width="8.78" height="22.14"/>
  <rect class="cls-6" x="416.15" y="437.56" width="8.78" height="22.14"/>
  <rect class="cls-6" x="427.68" y="437.56" width="8.78" height="22.14"/>
  <rect class="cls-6" x="393.09" y="474.22" width="8.78" height="22.14"/>
  <rect class="cls-3" x="393.64" y="506.04" width="8.78" height="22.14"/>
  <rect class="cls-6" x="416.7" y="506.04" width="8.78" height="22.14"/>
  <rect class="cls-2" x="437.76" y="612.25" width="8.78" height="22.14"/>
  <rect class="cls-6" x="402.62" y="648.91" width="8.78" height="22.14"/>
  <rect class="cls-2" x="414.15" y="648.91" width="8.78" height="22.14"/>
  <rect class="cls-3" x="425.68" y="648.91" width="8.78" height="22.14"/>
  <rect class="cls-6" x="437.76" y="648.91" width="8.78" height="22.14"/>
  <rect class="cls-6" x="403.17" y="680.73" width="8.78" height="22.14"/>
  <rect class="cls-6" x="426.23" y="680.73" width="8.78" height="22.14"/>
  <rect class="cls-6" x="438.31" y="680.73" width="8.78" height="22.14"/>
  <polygon class="cls-4" points="433.92 702.87 426.23 702.87 426.23 703.56 435.01 703.56 435.01 681.42 433.92 681.42 433.92 702.87"/>
  <polygon class="cls-4" points="410.86 681.42 410.86 680.73 402.07 680.73 402.07 702.87 403.17 702.87 403.17 681.42 410.86 681.42"/>
  <polygon class="cls-4" points="433.92 681.42 433.92 680.73 425.13 680.73 425.13 702.87 426.23 702.87 426.23 681.42 433.92 681.42"/>
  <rect class="cls-3" x="391.09" y="611.56" width="8.78" height="22.14"/>
  <rect class="cls-6" x="402.62" y="611.56" width="8.78" height="22.14"/>
  <rect class="cls-6" x="414.15" y="611.56" width="8.78" height="22.14"/>
  <rect class="cls-6" x="425.68" y="611.56" width="8.78" height="22.14"/>
  <rect class="cls-6" x="391.09" y="648.22" width="8.78" height="22.14"/>
  <rect class="cls-3" x="391.64" y="680.04" width="8.78" height="22.14"/>
  <rect class="cls-6" x="414.7" y="680.04" width="8.78" height="22.14"/>
  <rect class="cls-2" x="438.76" y="542.25" width="8.78" height="22.14"/>
  <rect class="cls-6" x="1363.11" y="617.1" width="12.88" height="11.96"/>
  <rect class="cls-6" x="1380.82" y="617.1" width="12.88" height="11.96"/>
  <rect class="cls-6" x="1397.72" y="617.1" width="12.88" height="11.96"/>
  <rect class="cls-7" x="1414.62" y="617.1" width="12.88" height="11.96"/>
  <rect class="cls-6" x="1363.11" y="636.92" width="12.88" height="11.96"/>
  <rect class="cls-6" x="1380.82" y="636.92" width="12.88" height="11.96"/>
  <rect class="cls-7" x="1397.72" y="636.92" width="12.88" height="11.96"/>
  <rect class="cls-6" x="1414.62" y="636.92" width="12.88" height="11.96"/>
  <rect class="cls-6" x="1363.92" y="654.12" width="12.88" height="11.96"/>
  <rect class="cls-6" x="1381.62" y="654.12" width="12.88" height="11.96"/>
  <rect class="cls-6" x="1398.52" y="654.12" width="12.88" height="11.96"/>
  <rect class="cls-6" x="1415.42" y="654.12" width="12.88" height="11.96"/>
  <rect class="cls-6" x="1363.92" y="672.81" width="12.88" height="11.96"/>
  <rect class="cls-6" x="1381.62" y="672.81" width="12.88" height="11.96"/>
  <rect class="cls-6" x="1398.52" y="672.81" width="12.88" height="11.96"/>
  <rect class="cls-6" x="1415.42" y="672.81" width="12.88" height="11.96"/>
  <rect class="cls-6" x="1363.92" y="692.63" width="12.88" height="11.96"/>
  <rect class="cls-7" x="1381.62" y="692.63" width="12.88" height="11.96"/>
  <rect class="cls-6" x="1398.52" y="692.63" width="12.88" height="11.96"/>
  <rect class="cls-6" x="1415.42" y="692.63" width="12.88" height="11.96"/>
  <rect class="cls-6" x="1380.82" y="617.1" width="12.88" height="11.96"/>
  <rect class="cls-6" x="1363.11" y="636.92" width="12.88" height="11.96"/>
  <rect class="cls-6" x="403.62" y="578.91" width="8.78" height="22.14"/>
  <rect class="cls-2" x="415.15" y="578.91" width="8.78" height="22.14"/>
  <rect class="cls-3" x="426.68" y="578.91" width="8.78" height="22.14"/>
  <rect class="cls-6" x="438.76" y="578.91" width="8.78" height="22.14"/>
  <rect class="cls-6" x="404.17" y="610.73" width="8.78" height="22.14"/>
  <rect class="cls-6" x="427.23" y="610.73" width="8.78" height="22.14"/>
  <rect class="cls-6" x="439.31" y="610.73" width="8.78" height="22.14"/>
  <polygon class="cls-4" points="434.92 632.87 427.23 632.87 427.23 633.56 436.01 633.56 436.01 611.42 434.92 611.42 434.92 632.87"/>
  <polygon class="cls-4" points="411.86 611.42 411.86 610.73 403.07 610.73 403.07 632.87 404.17 632.87 404.17 611.42 411.86 611.42"/>
  <polygon class="cls-4" points="434.92 611.42 434.92 610.73 426.13 610.73 426.13 632.87 427.23 632.87 427.23 611.42 434.92 611.42"/>
  <rect class="cls-3" x="392.09" y="541.56" width="8.78" height="22.14"/>
  <rect class="cls-6" x="403.62" y="541.56" width="8.78" height="22.14"/>
  <rect class="cls-6" x="415.15" y="541.56" width="8.78" height="22.14"/>
  <rect class="cls-6" x="426.68" y="541.56" width="8.78" height="22.14"/>
  <rect class="cls-6" x="392.09" y="578.22" width="8.78" height="22.14"/>
  <rect class="cls-3" x="392.64" y="610.04" width="8.78" height="22.14"/>
  <rect class="cls-6" x="415.7" y="610.04" width="8.78" height="22.14"/>
  <rect class="cls-6" x="375.19" y="473.26" width="8.78" height="22.14"/>
  <rect class="cls-6" x="375.74" y="505.08" width="8.78" height="22.14"/>
  <polygon class="cls-4" points="383.43 505.77 383.43 505.08 374.64 505.08 374.64 527.21 375.74 527.21 375.74 505.77 383.43 505.77"/>
  <rect class="cls-3" x="363.66" y="435.9" width="8.78" height="22.14"/>
  <rect class="cls-6" x="375.19" y="435.9" width="8.78" height="22.14"/>
  <rect class="cls-6" x="363.66" y="472.57" width="8.78" height="22.14"/>
  <rect class="cls-3" x="364.21" y="504.38" width="8.78" height="22.14"/>
  <rect class="cls-6" x="373.19" y="647.26" width="8.78" height="22.14"/>
  <rect class="cls-6" x="373.74" y="679.08" width="8.78" height="22.14"/>
  <polygon class="cls-4" points="381.43 679.77 381.43 679.08 372.64 679.08 372.64 701.21 373.74 701.21 373.74 679.77 381.43 679.77"/>
  <rect class="cls-3" x="361.66" y="609.9" width="8.78" height="22.14"/>
  <rect class="cls-6" x="373.19" y="609.9" width="8.78" height="22.14"/>
  <rect class="cls-6" x="361.66" y="646.57" width="8.78" height="22.14"/>
  <rect class="cls-3" x="362.21" y="678.38" width="8.78" height="22.14"/>
  <rect class="cls-6" x="374.19" y="577.26" width="8.78" height="22.14"/>
  <rect class="cls-6" x="374.74" y="609.08" width="8.78" height="22.14"/>
  <polygon class="cls-4" points="382.43 609.77 382.43 609.08 373.64 609.08 373.64 631.21 374.74 631.21 374.74 609.77 382.43 609.77"/>
  <rect class="cls-3" x="362.66" y="539.9" width="8.78" height="22.14"/>
  <rect class="cls-6" x="362.19" y="576.9" width="8.78" height="22.14"/>
  <rect class="cls-6" x="362.66" y="576.57" width="8.78" height="22.14"/>
  <rect class="cls-3" x="363.21" y="608.38" width="8.78" height="22.14"/>
  <rect class="cls-6" x="701.05" y="439.93" width="8.78" height="13.61"/>
  <rect class="cls-6" x="701.6" y="459.49" width="8.78" height="13.61"/>
  <polygon class="cls-4" points="709.28 459.92 709.28 459.49 700.5 459.49 700.5 473.1 701.6 473.1 701.6 459.92 709.28 459.92"/>
  <rect class="cls-3" x="689.52" y="416.96" width="8.78" height="13.61"/>
  <rect class="cls-6" x="701.05" y="416.96" width="8.78" height="13.61"/>
  <rect class="cls-6" x="689.52" y="439.5" width="8.78" height="13.61"/>
  <rect class="cls-3" x="690.07" y="459.07" width="8.78" height="13.61"/>
  <rect class="cls-6" x="699.05" y="546.92" width="8.78" height="13.61"/>
  <rect class="cls-6" x="699.6" y="566.49" width="8.78" height="13.61"/>
  <polygon class="cls-4" points="707.28 566.91 707.28 566.49 698.5 566.49 698.5 580.1 699.6 580.1 699.6 566.91 707.28 566.91"/>
  <rect class="cls-3" x="687.52" y="523.95" width="8.78" height="13.61"/>
  <rect class="cls-6" x="699.05" y="523.95" width="8.78" height="13.61"/>
  <rect class="cls-6" x="687.52" y="546.5" width="8.78" height="13.61"/>
  <rect class="cls-3" x="688.07" y="566.06" width="8.78" height="13.61"/>
  <rect class="cls-6" x="700.05" y="503.88" width="8.78" height="13.61"/>
  <rect class="cls-6" x="700.6" y="523.44" width="8.78" height="13.61"/>
  <polygon class="cls-4" points="708.28 523.87 708.28 523.44 699.5 523.44 699.5 537.06 700.6 537.06 700.6 523.87 708.28 523.87"/>
  <rect class="cls-3" x="688.52" y="480.91" width="8.78" height="13.61"/>
  <rect class="cls-6" x="700.05" y="480.91" width="8.78" height="13.61"/>
  <rect class="cls-6" x="688.52" y="503.45" width="8.78" height="13.61"/>
  <rect class="cls-3" x="689.07" y="523.02" width="8.78" height="13.61"/>
  <rect class="cls-6" x="775.05" y="438.01" width="8.78" height="13.61"/>
  <rect class="cls-6" x="775.6" y="457.58" width="8.78" height="13.61"/>
  <polygon class="cls-4" points="783.28 458 783.28 457.58 774.5 457.58 774.5 471.19 775.6 471.19 775.6 458 783.28 458"/>
  <rect class="cls-3" x="763.52" y="415.04" width="8.78" height="13.61"/>
  <rect class="cls-6" x="775.05" y="415.04" width="8.78" height="13.61"/>
  <rect class="cls-6" x="763.52" y="437.59" width="8.78" height="13.61"/>
  <rect class="cls-3" x="764.07" y="457.15" width="8.78" height="13.61"/>
  <rect class="cls-6" x="773.05" y="545.01" width="8.78" height="13.61"/>
  <rect class="cls-6" x="773.6" y="564.57" width="8.78" height="13.61"/>
  <polygon class="cls-4" points="781.28 565 781.28 564.57 772.5 564.57 772.5 578.18 773.6 578.18 773.6 565 781.28 565"/>
  <rect class="cls-3" x="761.52" y="522.04" width="8.78" height="13.61"/>
  <rect class="cls-6" x="773.05" y="522.04" width="8.78" height="13.61"/>
  <rect class="cls-6" x="761.52" y="544.58" width="8.78" height="13.61"/>
  <rect class="cls-3" x="762.07" y="564.15" width="8.78" height="13.61"/>
  <rect class="cls-6" x="774.05" y="501.96" width="8.78" height="13.61"/>
  <rect class="cls-6" x="774.6" y="521.53" width="8.78" height="13.61"/>
  <polygon class="cls-4" points="782.28 521.95 782.28 521.53 773.5 521.53 773.5 535.14 774.6 535.14 774.6 521.95 782.28 521.95"/>
  <rect class="cls-3" x="762.52" y="478.99" width="8.78" height="13.61"/>
  <rect class="cls-6" x="774.05" y="478.99" width="8.78" height="13.61"/>
  <rect class="cls-6" x="762.52" y="501.54" width="8.78" height="13.61"/>
  <rect class="cls-3" x="763.07" y="521.1" width="8.78" height="13.61"/>
  <rect class="cls-6" x="729.05" y="441.01" width="8.78" height="13.61"/>
  <rect class="cls-6" x="729.6" y="460.58" width="8.78" height="13.61"/>
  <polygon class="cls-4" points="737.28 461 737.28 460.58 728.5 460.58 728.5 474.19 729.6 474.19 729.6 461 737.28 461"/>
  <rect class="cls-3" x="717.52" y="418.04" width="8.78" height="13.61"/>
  <rect class="cls-6" x="729.05" y="418.04" width="8.78" height="13.61"/>
  <rect class="cls-6" x="717.52" y="440.59" width="8.78" height="13.61"/>
  <rect class="cls-3" x="718.07" y="460.15" width="8.78" height="13.61"/>
  <rect class="cls-6" x="727.05" y="548.01" width="8.78" height="13.61"/>
  <rect class="cls-6" x="727.6" y="567.57" width="8.78" height="13.61"/>
  <polygon class="cls-4" points="735.28 568 735.28 567.57 726.5 567.57 726.5 581.18 727.6 581.18 727.6 568 735.28 568"/>
  <rect class="cls-3" x="715.52" y="525.04" width="8.78" height="13.61"/>
  <rect class="cls-6" x="727.05" y="525.04" width="8.78" height="13.61"/>
  <rect class="cls-6" x="715.52" y="547.58" width="8.78" height="13.61"/>
  <rect class="cls-3" x="716.07" y="567.15" width="8.78" height="13.61"/>
  <rect class="cls-6" x="728.05" y="504.96" width="8.78" height="13.61"/>
  <rect class="cls-6" x="728.6" y="524.53" width="8.78" height="13.61"/>
  <polygon class="cls-4" points="736.28 524.95 736.28 524.53 727.5 524.53 727.5 538.14 728.6 538.14 728.6 524.95 736.28 524.95"/>
  <rect class="cls-3" x="716.52" y="481.99" width="8.78" height="13.61"/>
  <rect class="cls-6" x="728.05" y="481.99" width="8.78" height="13.61"/>
  <rect class="cls-6" x="716.52" y="504.54" width="8.78" height="13.61"/>
  <rect class="cls-3" x="717.07" y="524.1" width="8.78" height="13.61"/>
  <rect class="cls-6" x="1792.06" y="557.15" width="15.91" height="19.41"/>
  <rect class="cls-6" x="1813.93" y="589.3" width="15.91" height="19.41"/>
  <rect class="cls-6" x="1793.05" y="617.2" width="15.91" height="19.41"/>
  <rect class="cls-6" x="1814.92" y="617.2" width="15.91" height="19.41"/>
  <rect class="cls-6" x="1793.05" y="647.53" width="15.91" height="19.41"/>
  <rect class="cls-6" x="1814.92" y="647.53" width="15.91" height="19.41"/>
  <rect class="cls-6" x="1793.05" y="679.69" width="15.91" height="19.41"/>
  <rect class="cls-7" x="1814.92" y="679.69" width="15.91" height="19.41"/>
  <rect class="cls-6" x="1813.93" y="557.15" width="15.91" height="19.41"/>
  <rect class="cls-6" x="1792.06" y="589.3" width="15.91" height="19.41"/>
  <rect class="cls-11" x="1308.71" y="670.85" width="12.88" height="11.96" transform="translate(1991.98 -638.32) rotate(90)"/>
  <rect class="cls-11" x="1288.89" y="688.55" width="12.88" height="11.96" transform="translate(1989.86 -600.8) rotate(90)"/>
  <rect class="cls-11" x="1271.69" y="671.65" width="12.88" height="11.96" transform="translate(1955.76 -600.5) rotate(90)"/>
  <rect class="cls-11" x="1271.69" y="689.36" width="12.88" height="11.96" transform="translate(1973.47 -582.79) rotate(90)"/>
  <rect class="cls-11" x="1253" y="671.65" width="12.88" height="11.96" transform="translate(1937.07 -581.8) rotate(90)"/>
  <rect class="cls-11" x="1253" y="689.36" width="12.88" height="11.96" transform="translate(1954.77 -564.1) rotate(90)"/>
  <rect class="cls-11" x="1233.18" y="671.65" width="12.88" height="11.96" transform="translate(1917.25 -561.98) rotate(90)"/>
  <rect class="cls-13" x="1233.18" y="689.36" width="12.88" height="11.96" transform="translate(1934.96 -544.28) rotate(90)"/>
  <rect class="cls-11" x="1308.71" y="688.55" width="12.88" height="11.96" transform="translate(2009.68 -620.61) rotate(90)"/>
  <rect class="cls-11" x="1288.89" y="670.85" width="12.88" height="11.96" transform="translate(1972.16 -618.5) rotate(90)"/>
  <rect class="cls-11" x="1029.45" y="658.84" width="21.11" height="7.63" transform="translate(1702.66 -377.35) rotate(90)"/>
  <rect class="cls-11" x="1016.81" y="687.87" width="21.11" height="7.63" transform="translate(1719.05 -335.68) rotate(90)"/>
  <rect class="cls-11" x="1005.84" y="660.16" width="21.11" height="7.63" transform="translate(1680.37 -352.42) rotate(90)"/>
  <rect class="cls-11" x="1005.84" y="689.19" width="21.11" height="7.63" transform="translate(1709.4 -323.39) rotate(90)"/>
  <rect class="cls-11" x="993.91" y="660.16" width="21.11" height="7.63" transform="translate(1668.45 -340.5) rotate(90)"/>
  <rect class="cls-11" x="993.91" y="689.19" width="21.11" height="7.63" transform="translate(1697.48 -311.47) rotate(90)"/>
  <rect class="cls-11" x="981.27" y="660.16" width="21.11" height="7.63" transform="translate(1655.8 -327.85) rotate(90)"/>
  <rect class="cls-13" x="981.27" y="689.19" width="21.11" height="7.63" transform="translate(1684.84 -298.82) rotate(90)"/>
  <rect class="cls-11" x="1029.45" y="687.87" width="21.11" height="7.63" transform="translate(1731.69 -348.32) rotate(90)"/>
  <rect class="cls-11" x="1016.81" y="658.84" width="21.11" height="7.63" transform="translate(1690.02 -364.71) rotate(90)"/>
  <rect class="cls-11" x="304.41" y="672.52" width="13.54" height="2.69" transform="translate(985.05 362.69) rotate(90)"/>
  <rect class="cls-11" x="299.95" y="691.14" width="13.54" height="2.69" transform="translate(999.2 385.76) rotate(90)"/>
  <rect class="cls-11" x="296.08" y="673.37" width="13.54" height="2.69" transform="translate(977.56 371.87) rotate(90)"/>
  <rect class="cls-11" x="296.08" y="691.98" width="13.54" height="2.69" transform="translate(996.18 390.48) rotate(90)"/>
  <rect class="cls-11" x="291.87" y="673.37" width="13.54" height="2.69" transform="translate(973.35 376.08) rotate(90)"/>
  <rect class="cls-11" x="291.87" y="691.98" width="13.54" height="2.69" transform="translate(991.97 394.69) rotate(90)"/>
  <rect class="cls-11" x="287.4" y="673.37" width="13.54" height="2.69" transform="translate(968.89 380.54) rotate(90)"/>
  <rect class="cls-13" x="287.4" y="691.98" width="13.54" height="2.69" transform="translate(987.5 399.16) rotate(90)"/>
  <rect class="cls-11" x="304.41" y="691.14" width="13.54" height="2.69" transform="translate(1003.67 381.3) rotate(90)"/>
  <rect class="cls-11" x="299.95" y="672.52" width="13.54" height="2.69" transform="translate(980.59 367.15) rotate(90)"/>
  <path class="cls-27" d="M1822.79,695.1c-4.4-7-8.81-14-13.21-21l6.71-10,6.71,4.42v-16.21l5.79-10.37,10.18-12.47,19.82,7.1,12.22,18.11-12.22,19.41,8.3,8.82-5.11,8.81-17.19,6.37c-1.33,5.33-2.67,10.67-4,16-2.1-.33-4.19-.67-6.29-1l-11.71-18Z"/>
  <polygon class="cls-23" points="1823 652.31 1823 668.52 1816.29 664.1 1809.58 674.1 1834.5 713.1 1815.79 677.1 1817.43 671.29 1828.79 677.39 1831.98 648.22 1837.79 647.1 1838.97 629.48 1828.79 641.95 1823 652.31"/>
  <path class="cls-27" d="M1852.83,713.06l-13.86-7.96-7.95-7.18c2.82-8.82,8.95-8.82,8.95-8.82l8.45-10,12.43,5.27c8.99-7.27,13.99-2.27,13.99-2.27l11.5,13.63-2.06,14.54-12.81,2.8h-12.79c-5.84,.04-5.84,0-5.84,0Z"/>
  <polygon class="cls-23" points="1861.83 689.1 1870.33 686.79 1874.83 682.1 1868.33 680.58 1860.83 684.37 1848.4 679.1 1839.95 689.1 1833.67 692.73 1831.01 697.92 1838.96 705.1 1852.83 713.06 1839.95 702.6 1836.14 697.92 1839.95 694.12 1845.92 692.37 1849.83 682.1 1858.67 686.79 1861.83 689.1"/>
  <path class="cls-27" d="M1889.83,710.1v-8c-1.59,1.76-3.18,3.52-4.77,5.29l-7.23-2.29,2-8-5-7-14-3v-14.79l5.5-10.37,11.69,5.87c-.06-3.57-.13-7.14-.19-10.71-2-2.33-4-4.67-6-7-1.33-5-2.67-10-4-15l4.22-11.09,5.98-11.81,7.85-12.82,3.96-9.28,11,7s9,11,9,18-4,21.5-4,21.5l-5,8.5,3.8,14.69h7.26s6.94,6.31,1.94,10.31-9.78,4-9.78,4c-.41,1.67-.81,3.33-1.22,5,.67,1.67,1.33,3.33,2,5,1,3.33,2,6.67,3,10-2.33,1.67-4.67,3.33-7,5-1.67,1-3.33,2-5,3,.33,2.67,.67,5.33,1,8h-7Z"/>
  <polygon class="cls-23" points="1886.83 609.1 1889.83 590.1 1885.87 599.38 1878.82 609.1 1875.43 617.33 1872.04 624.01 1869.15 631.62 1867.83 635.1 1871.83 650.1 1876.21 655.21 1877.83 657.1 1878.02 667.81 1866.33 661.95 1860.83 672.31 1860.83 687.1 1874.83 690.1 1879.83 697.1 1877.83 705.1 1885.05 707.39 1889.83 702.1 1889.83 710.1 1893.81 710.1 1889.83 695.1 1883.83 705.1 1882.83 701.1 1881.26 691.79 1862.33 684.1 1867.83 668.1 1880.72 671.58 1882.88 663.21 1872.04 636.6 1873.67 626.64 1880.99 612.2 1883.83 615.1 1886.83 609.1"/>
  <path class="cls-23" d="M1904.89,664.79l-12.48,7.21-4.19,4.58,5.83-11.05c-.22-5.43-.22-15.43-.22-15.43l3.8,14.69h7.26Z"/>
  <path class="cls-24" d="M1411.62,710.44l.8-3.84-4.02-2.44c.43-5.06-.8-6.28-.8-6.28l1.23-2.77s-5,4,0,0,6.58-4,6.58-4c6.42,2,9.89,3.53,9.89,3.53l-2.18,5.98c-4.29,2.49-5.06,3.83-5.06,3.83l.8,6h-7.24Z"/>
  <path class="cls-24" d="M1401.72,709.44v-6.28l-5.01-3.39-4.65-6.14-.8-9.36,2.31-5.95,4.93-4.5h7.35l4.85,3.77,3.89,4.45,.8,3.75-4.13,8.24-3.12,4c.67,3.08,0,5.42,0,5.42-.33-.34-1.74,6-1.74,6l-4.59-.34-.11,.34Z"/>
  <polygon class="cls-24" points="1380.8 712.1 1372.16 701.97 1374.36 695.53 1380.8 693.63 1385.62 693.63 1394.14 699.61 1387.83 705.1 1395.85 705.59 1401.72 712.1 1394.71 712.1 1380.8 712.1"/>
  <polygon class="cls-23" points="1414.16 694.94 1415.41 691.1 1410.52 694.07 1408.83 695.1 1407.59 697.87 1408.4 704.16 1412.42 706.59 1411.62 710.44 1413.83 705.1 1409.83 702.1 1409.83 698.1 1414.16 694.94"/>
  <path class="cls-23" d="M1405.85,673.81l-6.02,3.29-3.73,2.69-3.27,3.31,1.29,7h3.58l.8,3.53-4.67-.53c1,2,3.87,4.27,3.87,4.27l2.35,2.24,2.51,2.12-.03,3.87-.7,3.51s-.65-3.2-.33-4.6l.33-1.4-5.11-3.33-4.65-6.14-.8-9.36,2.31-5.95,4.93-4.5h7.35Z"/>
  <path class="cls-23" d="M1385.62,693.63l-6.8,2.47-3.71,3.51,2.71,1.49,6.39-1.33-.66,3.1-5.73,.24v2l2.97,2.7,2.76,1.3,7.27,2c2,1-10.03,1-10.03,1l-8.64-10.13,2.2-6.44,6.44-1.91h4.83Z"/>
  <path class="cls-27" d="M1442.83,720.1v-10l-6.22,5-4.11-5.84,3.33-7.16-5-7,7-13.47,.5-23.27s7.5-7.25,16.5-11.25,20,9,20,9l-15.1,22,11.06,3.53-.5,14.18-14.08,9.79-8.55,4.5,2.51,10h-7.35Z"/>
  <path class="cls-27" d="M1471.83,720.1l-7.82-10-4.52-13,6.17-13.88,10.17-12.12,15.58,1.17s11.2,3.31,11.31,12.07-3.89,23.76-3.89,23.76l-16,6-1.73,6h-9.27Z"/>
  <path class="cls-27" d="M1496.83,719.1l-5.07-8.35,1.07-7.65,9.06-9.51h11.39l5.28,11.51s.27,8-4.73,10-11.11,2.08-11.11,2.08l-5.89,1.92Z"/>
  <path class="cls-27" d="M1420.42,716.67s-5.06,.02-4.83-5.28,.8-8.55,.8-8.55l7.01-4.27s7.36-3.55,9.89,0,8.84,8.27,8.84,8.27l.69,6.82-5,4.02h-11.77l-5.63-1.01Z"/>
  <polygon class="cls-23" points="1474.83 656.1 1462.83 650.1 1441.83 658.1 1439.99 661.81 1441.38 681.63 1437.19 687.77 1438.33 658.35 1449.17 650.1 1454.83 647.1 1458.68 647.1 1463.75 646.33 1474.83 656.1"/>
  <polygon class="cls-23" points="1442.83 710.1 1436.6 715.1 1432.49 709.26 1435.83 702.1 1430.82 695.1 1437.83 681.63 1435.83 692.1 1439.83 703.1 1437.83 708.51 1442.83 710.1"/>
  <polygon class="cls-12" points="184.7 712.26 158.23 707.1 147.83 700.1 163.81 693.1 184.7 694.1 205.57 704.79 207.76 712.26 184.7 712.26"/>
  <polygon class="cls-23" points="1442.83 720.1 1446.1 720.1 1444.46 710.08 1442.83 710.1 1442.83 720.1"/>
  <polygon class="cls-23" points="1475.83 671.1 1465.65 683.22 1459.48 697.1 1464 710.1 1471.83 720.1 1481.1 720.1 1472.66 715.09 1466.61 698.36 1471.83 683.22 1479.83 689.1 1478.42 681.63 1471.83 679.11 1475.83 675.1 1483.83 673.1 1475.83 671.1"/>
  <path class="cls-23" d="M1504.28,693.59l-6.94,4.77-4.51,4.74-1.07,7.65,3.26,5.38,1.8,2.97,1.19-6.05-2.3-3.79,2.3-5.16,4.7-5.74h4.36l3.49-.93,2.7-3.84s-8.54,.49-8.99,0Z"/>
  <polygon class="cls-23" points="1429.21 697.44 1421.83 701.1 1418.67 705.6 1419.5 710.08 1422.83 713.1 1419.62 714.1 1415.59 711.39 1415.59 709.26 1415.59 706.35 1416.4 702.85 1423.41 698.57 1426.86 697.44 1429.21 697.44"/>
  <path class="cls-27" d="M56.83,711.18l-18-11.08-3-8v-20.38l14-21.62c14,4,15,16.54,15,16.54l13-5.92,1-19.62,12-11.81,24,3.97,12,16.84,2,22-22,22.38-24.5,8.62,.5,12.39h-12l-14-4.31Z"/>
  <path class="cls-27" d="M152.83,715.49l-21-19.39-3-16.77,8-3.19,4-10.18-14-15.86,9-27,16-38.4s3.92-7.6,10.96,1.9,26.86,46.22,26.86,46.22l-20.31,21.44,12.08,11.07-7.14,26.77-4.94,20.16-16.51,3.23Z"/>
  <polygon class="cls-23" points="103.83 715.49 99.83 703.1 106.83 694.48 119.83 690.1 138.86 702.6 138.86 715.49 124.83 715.49 103.83 715.49"/>
  <polygon class="cls-27" points="184.7 712.26 174.27 692.1 185.8 675.7 208.31 673.1 220.94 689.56 208.86 698.25 216.55 703.1 207.76 712.26 184.7 712.26"/>
  <g>
    <path class="cls-24" d="M319.41,710.1l-2.99-6.02c1.4-5.98,4.48-7.59,4.48-7.59-.08-.39,7.92,3.61,7.92,3.61l-3,5c-1,6-6.42,5-6.42,5Z"/>
    <path class="cls-24" d="M331.73,710.1l-5.9-5c4-10,3-14.54,3-14.54v-11.85l2.9-6.23c6.1,3.62,6.64,15.29,6.64,15.29v9.56l1.94,8.08-8.58,4.69Z"/>
    <path class="cls-24" d="M308.53,706.87l2.3,5.23,9-2v-17.09l-7.01,.44-4.29,13.41Z"/>
    <polygon class="cls-23" points="331.73 672.48 330.59 678.71 330.59 691.29 328.83 700.1 331.73 710.1 325.83 705.1 328.83 690.56 328.83 678.71 331.73 672.48"/>
    <polygon class="cls-23" points="320.9 696.49 318.83 701.1 319.83 706.1 322.05 709.91 319.83 710.1 316.42 704.08 317.92 699.61 320.9 696.49"/>
    <polygon class="cls-23" points="319.83 693.01 314.18 694.34 310.52 706.87 311.83 709.1 315.17 710.1 317.32 710.66 310.83 712.1 308.53 706.87 312.82 693.45 319.83 693.01"/>
  </g>
  <g>
    <path class="cls-27" d="M233.83,714.56l-12.89-20.01,17.83-13.91s9.06-8.55,6.56-25.55,.03-31.86,.03-31.86l9.33-8.92,25.8,14.78-12.08,21.88,8.78,32.51,.55,24.62h-9.88l-34.04,6.46Z"/>
    <path class="cls-23" d="M254.69,614.32l-7.46,9.61-1.32,23.38,5.92,14.8s-.06,8.63-1.53,12.82-7.69,10.71-7.69,10.71l-13.04,9.05,4.25,12.07,2.99,5.34,1.4,2.46h-4.39l-12.89-20.01,21.67-19.53,5.97-9.32-5.43-20.37v-13.43l2.75-10.41,8.78-7.18Z"/>
    <polygon class="cls-23" points="243.83 663.1 242.61 673.41 239.21 678.1 242.61 677.56 249.2 668.94 249.75 664.44 247.23 657.26 244.48 648.83 243.83 663.1"/>
  </g>
  <polygon class="cls-23" points="208.31 673.1 187.83 681.1 181.41 686.77 180.31 697.68 189.64 708.39 194.31 712.26 184.7 712.26 174.27 692.1 185.8 675.7 208.31 673.1"/>
  <polygon class="cls-23" points="199.83 693.1 206.64 688.1 211.31 690.29 199.83 693.1"/>
  <polygon class="cls-23" points="155.7 581.84 142.83 626.05 136.83 644.52 148.83 662.1 142.83 666.22 151.82 679.12 163.81 669.4 160.83 681.1 146.83 684.1 141.83 678.28 133.83 684.1 136.83 692.68 147.83 700.1 144.83 704.92 152.83 715.49 131.83 696.1 128.83 679.33 140.13 674.1 137.97 662.73 126.83 650.1 146.05 595.46 152.82 582.07 155.7 581.84"/>
  <polygon class="cls-23" points="90.83 629.29 82.33 643.88 81.56 662.84 72.83 668.34 62.83 668.34 60.73 657.1 51.83 654.1 44.77 663.94 39.48 675.01 42.83 693.92 61.83 707.1 72.83 714.65 55.04 710.08 38.83 700.1 31.66 687.41 32.83 672.39 40.83 655.59 49.83 647.62 53.44 643.83 57.83 648.67 68.03 659.44 72.83 659.44 77.83 645.5 79.83 633.45 88.75 629.29 90.83 629.29"/>
  <path class="cls-27" d="M119.83,692.1l-11,8,2,5.67,11-1.06,4,2.39-11,2.46h-6c-3,5.54-5,3.6-5,3.6l-3-6.97v-5.51l6-6.21,2.34-2.38,10.66-2v2Z"/>
  <path class="cls-9" d="M468.83,51.41h562.98l-14.53,20.88,21.16,39.56h71.63l3.98-60.43,39.8,30.22,100.81-15.6-90.83-14.61-12.63-50.1-58.7-16.7L1022.55,1.3V-51.9l-46.9-74.14-89.19,25.46-14.35,72.66-61.8,20.82-61.69-44.8-43.79,24-9,44-52-48-76-20-38.61,44.8-7.63,35.15h-31.76c-21,23.05-21,23.35-21,23.35Z"/>
</svg>