<?xml version="1.0" encoding="UTF-8"?>
<svg id="Layer_1" data-name="Layer 1" xmlns="http://www.w3.org/2000/svg" xmlns:xlink="http://www.w3.org/1999/xlink" viewBox="0 0 1920 720">
  <defs>
    <style>
      .cls-1 {
        fill: url(#linear-gradient);
      }

      .cls-2 {
        fill: #fff;
        opacity: .4;
      }

      .cls-3 {
        fill: #daf6ff;
      }

      .cls-4 {
        fill: url(#radial-gradient);
        opacity: .5;
      }
    </style>
    <linearGradient id="linear-gradient" x1=".5" y1="-341.94" x2="2108.67" y2="-341.94" gradientTransform="matrix(1, 0, 0, 1, 0, 0)" gradientUnits="userSpaceOnUse">
      <stop offset="0" stop-color="#cbd2e2"/>
      <stop offset=".51" stop-color="#d7dfe4"/>
      <stop offset=".99" stop-color="#dde5e5"/>
    </linearGradient>
    <radialGradient id="radial-gradient" cx="1796.83" cy="-504.66" fx="2871.93" fy="-1335.01" r="3451.03" gradientTransform="matrix(1, 0, 0, 1, 0, 0)" gradientUnits="userSpaceOnUse">
      <stop offset="0" stop-color="#fff4e9"/>
      <stop offset=".3" stop-color="#fcf3e9"/>
      <stop offset=".45" stop-color="#f5f3eb"/>
      <stop offset=".57" stop-color="#e7f2ed"/>
      <stop offset=".67" stop-color="#d5f0f1"/>
      <stop offset=".75" stop-color="#bdeef6"/>
      <stop offset=".83" stop-color="#9febfc"/>
      <stop offset=".86" stop-color="#94ebff"/>
    </radialGradient>
  </defs>
  <rect class="cls-1" x=".5" y="-735.06" width="2108.16" height="786.24"/>
  <rect class="cls-3" x="-34.17" y="-343.9" width="1964" height="1233"/>
  <path class="cls-2" d="M-229.17,379.83S658.83-75.89,612.83,48.61c-46,124.49-342,531.96,9,331.23s406,9.31-144,487.29C-72.17,1345.1-206.18,1147.39-206.18,1147.39l-22.99-767.56Z"/>
  <path class="cls-2" d="M2234.83-200.9L1466.65,490.55s611.17-233.83,406.17,92.36c-205,326.19-316.24,541.43-316.24,541.43l662.24-646.24,16-679Z"/>
  <polygon class="cls-4" points="1999.83 -415.52 1813.83 -502.9 1860 -609.27 872 -703.27 584.5 -703.27 754 -577.27 -37.17 -505.35 -37.17 910.1 1999.83 910.1 1999.83 -415.52"/>
</svg>